/* XPM */
static char *texture[] = {
/* columns rows colors chars-per-pixel */
"64 64 71 2",
"   c #383B34",
".  c #3B4634",
"X  c #494B43",
"o  c #4C5642",
"O  c #424B38",
"+  c #48543A",
"@  c #525B45",
"#  c #586546",
"$  c #5D6551",
"%  c #697655",
"&  c #75845A",
"*  c #707C5B",
"=  c #7B8767",
"-  c #808D6B",
";  c #889377",
":  c #848A75",
">  c #8E9981",
",  c #959A85",
"<  c #2B3425",
"1  c #52613E",
"2  c #636956",
"3  c #80915A",
"4  c #82916A",
"5  c #6F8052",
"6  c #65744B",
"7  c #7E8370",
"8  c #9BA188",
"9  c #323A2B",
"0  c #37422D",
"q  c #606D4B",
"w  c #91997D",
"e  c #505D3D",
"r  c #A7A897",
"t  c #757966",
"y  c #A1A58D",
"u  c #AEB19B",
"i  c #6E7461",
"p  c #B7B6A7",
"a  c #B0B29D",
"s  c #404C2E",
"d  c #BFC0AF",
"f  c #42502F",
"g  c #9FA090",
"h  c #C4C2B3",
"j  c #C0BEB2",
"k  c #B0ADA1",
"l  c #A19D92",
"z  c #9E9C90",
"x  c #908D81",
"c  c #8E8C80",
"v  c #262923",
"b  c #25311E",
"n  c #21271D",
"m  c #7D7D71",
"Q  c #6B6C62",
"W  c #1B221B",
"E  c #595A51",
"R  c #807E73",
"T  c #151915",
"Y  c #716F63",
"U  c #605E53",
"I  c #504E49",
"P  c #413E39",
"A  c #0F1410",
"S  c #0B0D0A",
"D  c #1D1E20",
"F  c #1F2120",
"G  c #312D28",
"H  c #0E100D",
"J  c #0E0F11",
"K  c #10120E",
/* pixels */
"    . . . . . . X X X o O + O o o o + . X o @ o @ # # # # # $ # % % & % * = & & = = = = = = = - = ; ; ; ; = : ; ; ; > , , , > ; ",
".   < . . . . . . X . X + O o O . o . O o @ # o o # # 1 # # 2 % % % & % & & 3 4 & & 4 = = = - 4 ; : ; ; ; ; ; ; ; ; , ; > ; ; ; ",
"  . . . . . . . . X . . o . O O . . . . @ o + o # # # # # % # # 5 % 6 & 6 & & & & & = - = = = - : : 4 ; ; ; ; ; = ; : ; ; : ; > ",
"< . . . . . . . . . . X . . o O O + o O + o o o # + @ # # # # 6 6 % 6 % % % & & & = & = = = 4 4 = - ; ; ; ; ; 7 ; ; ; : ; 8 , , ",
".   < . . . . . O . . . O O O o O O . o + o + + # + + # + 6 6 6 6 % 6 # % % & & & % = = = - = - : 4 ; ; ; ; = = ; ; ; ; , ; ; 8 ",
"9 9 . . 0 . . . . . . . . . . . . . o O + . o + + @ + # # 6 6 6 6 q % % % % & & & & & = = = = = : = - - ; : ; = ; ; ; ; ; > , 8 ",
"  9 . . < . . . . . 9 . . O . . . . . . O . o o + + # # # q q 6 % % % 6 6 % % & & & & = = = = = = = = = ; ; ; : ; w ; - ; , w , ",
"< 9 9 . 9 . . . 9 . O . . . O . 0 O . O O O . + o @ # # 6 q # 6 6 6 q 6 6 % 6 & & & & = = = = - - = = ; ; ; = : ; ; ; ; ; w w , ",
". < . 9 9 . . . 0 . . 9 9 . . . . O + . O O o + o O + # 6 # q % 6 6 6 6 6 & % * % % & & = & = = = = = - ; ; ; : ; w : ; ; w , 8 ",
"9 . 9 . . . . . . . 9 O O . . . . + + o . O o o o + + + # # 6 6 6 6 6 6 6 6 6 & % % & & = & & & = = = = - ; ; ; : ; ; , ; 8 , , ",
"9 9 0 . . . . . O . . . . < . 9 O . . + O . + + + + + # + # # 6 6 q 6 6 & % % % * * & & & & & = & = = ; = ; : ; ; , w , ; w ; ; ",
"  9 9 . . . . . 9 9 . 9 . . 0 . 9 . O . . + O O o o + + + # # 6 # q # 6 % % % 6 % % % % * & & = & % % - - = ; w ; ; , w w 8 ; 8 ",
"9 . 0 9 . . . . . . 9 0 . . .   < 9 . 0 + o . O + + + @ + # # # # # # 6 6 % 6 % % % % % % % = = = = = = : ; : : ; ; w , w , , , ",
"9 . . 9 . O O . . . . . . 9 9 9 . 0 . O . O + o + e # # + # + # 1 # q # 6 # 6 % % * % % * q % = * = * = - ; ; : - ; , , ; , 8 r ",
". 0 9 0 9 . . 0 . . O . 0 0 0 . O 0 O . . . . @ + # e + @ o + # # # # # # % # % q # % % % * % = t = = = = : : : ; w 8 8 , y y r ",
"9 9 . 0 . . . . 0 0 . 0 0 O . . 0 O O O + O O + + # + 1 # # # 1 # # % # # e # q # q % # # % % = % = = : = - : , w w y y r 8 y y ",
"< . . 0 . . . . . . . O O . 0 . 0 + + + + . o + + # # # # # # # # # # # # # # # # % % % + % % # # = = t = = = , ; 8 , y 8 r y y ",
"0 . 0 . . 0 . . . . . . O O O + + + + . O o + + o # # # # # # # # 1 # # # # # # # % % q # = # # 2 = * = = t : : , , 8 8 8 8 8 u ",
"0 0 . 0 0 0 . 0 O O . O O . . . + + O 0 + + + + + @ # # # # # # # q % # # # # + # # % % % t 2 2 t t t = ; = : ; ; 8 ; r u y , r ",
"0 0 . + O O 0 O . . 0 O + O + . . + + + + + + + + @ + # @ + # # # 1 # # q # e # q # % # # # % % % % = : = : : , ; , y r , r r r ",
"0 . O . + + 0 O O + O O + + O 0 + + + + + O 0 + @ @ @ # + # # 1 # # # # # # # # % % 2 % # # t % % i % = = : : : ; , r u p 8 a p ",
"0 0 + + e + + + O + + + s O O O + + + + + + + + @ @ @ @ @ # # # q # # # # # q # # # # # # % % = = 2 % t = : : : w , u u r a p d ",
"0 . O O 0 + O O O O + @ + + + + + + + + O + + @ @ # @ e @ @ # # # # q # # # @ # @ + o # # # # t t % % = t , ; , , , r r u p r r ",
"9 . 0 0 O + O O + + @ + + + # + + # + + O + + @ e @ @ + + @ + # # # # # # # # # # # 2 2 % % % % % i = = = = : > : , , r p a r r ",
"9 0 + + + + . + + + 1 + + O + + + + + + + @ @ + o # o + + # @ # # # # # # # # # # 2 % 2 q % % % % t % t : t , t : , r p r r p p ",
"9 0 . + + + + + f + + + + + + + + + + + + # + + o + + @ @ o # + @ # # # # # # # @ # % 2 2 # % 2 t % * t t : 7 : , g p h p p p j ",
"< < < 0 . 0 + + e + + + e + # + + # + + + O + O + + + # # o o # # # @ o # o @ @ # # # # 2 2 % 2 % = = = = , 7 : , , p r p k p k ",
"< < 9 9 + + + + + + s + + + + + O + + + + + + + + + + # # # # o # # # @ @ # o @ # # # 2 $ 2 2 % t t % t = ; 7 : , , r p p k p k ",
"< < < < . . . . . + + O O + + O O + + + + O + + + + # # # + e o @ # # # @ # @ o + # $ # 2 2 % * t % t t t ; : = : r r r j p l r ",
"< < < 9 9 9 . 0 . . . . O O + O . + + + O O + . + # + + e + e e @ # + e # + o # # # $ # 2 # q # % t t t = = ; : : , z r r p x , ",
"< < < < < 9 9 . 9 . 0 . 0 + O . 0 + + + + . + . O + O + + + # # + @ # # # + + + + @ @ @ # 2 # % = i t t = : , : : , , , , r , z ",
"< 0 0 < < < < 9 9 0 0 0 9 0 0 9 . 0 0 O 0 O . O 0 O O O O + + + + + + @ o o . + @ $ 2 # $ 2 % 2 % 2 t t t : : : : , , , z z x r ",
"< < 9 < < < < < < < < 9 0 0 9 0 0 0 . 0 . O O . O 0 O . + O + + O o + + @ o O + + # @ # 2 @ $ $ % 2 t = t 7 t : : : r r c x , r ",
"v < < 9 < < < b < < < < 0 0 0 0 . 0 0 0 0 0 0 9 . . 0 + O . 0 . O O + O + + + + + @ o # # # 2 2 2 2 2 % i : 7 t : : : , , , r r ",
"v n b < < < < < < < < b < 9 < < < < 0 0 0 0 0 0 0 0 0 . . . . 0 0 . . . O + + + + o @ @ @ # @ 2 $ $ 2 % t t t : 7 : : m : , : , ",
"n v n v < < < < < < b < < < 0 0 9 9 < < < 9 0 9 0 . . < . 9 0 . O . 0 0 O O O + o o @ o @ @ @ 2 2 2 2 2 % Q Q m t : m : : m c , ",
"n < v n < n < < b < < W < 9 < 9 9 9 9 9 9 9 9 9 9 9 0 9 0 . < 9 . . . O O O . O O o @ @ o o $ @ 2 2 2 2 2 t 2 i t t t t : x t x ",
"v < n < < v n < n n < n n < < n < < < < 9 < < < 9 9 9 9 . . . 9 0 . 9 . 9 9 . 0 O o o @ o o @ @ $ 2 2 $ 2 2 2 2 2 t : : t c , : ",
"v n v n W n < v < b n n n n n n < < n v n < < 9 < 9 < 9 < 9 9 . 9 9 0 9 O 9 O 9 9 . . O O O o O @ @ @ $ 2 2 @ 2 2 2 t t t , : t ",
"n n W v v n < n n n W n v n n n n n n v 9 < < n < < < < 9 n 9 9 < < < 9 9 . . . O O O O o O o o @ o @ i $ E @ 2 2 2 Q m Q t R t ",
"n v n n v n n n T n W n v v v v v v n v n n < v v n n < < < < < 9 9   9 9 9 . . . O . O o O O O X @ o @ @ $ $ 2 Q Q Q t Q 2 t Y ",
"n W v n v n v W W v < W W n n n v v n < n n n < v < v v < < < 9 < < < < 9 9     . <   O O O .   9 @ E @ E 2 E @ E 2 2 E E E 2 t ",
"W W W n W n n n n W n W W n n n n W n n W W W v n n W n < < < v n < < < n < 9 < 9 .     O   . O .   O @ o E X E X X X E @ 2 U @ ",
"v n n W n n n W W n n n n W W W n W W n W n n n n W < < n n n v < < v n n n < 9 9           . O .     X X   O X @ X   E @ X O X ",
"W W W W n n v W n n n W W W W W W W W v W W v W n W v n W v v v n v W W v W v v v <       9 O .     X   X   O X O @ X O X O   2 ",
"v W n W W v n W W v W T W W W n W W W W W W W v v W n W W W n v n v v v 9 v v v v v < < 9 9   . . v   X     O X O O X X X @ I @ ",
"v v W W W W W W W W W W W W W W W W W W W W W W v W v W v v v v v v v W v v n n 9 v v v 9               .     X P X X   O v   9 ",
"v v W W W W W W W W W W W W W W W W v W W W W v W v W T v W W W W W v W T v v v T v v v   v 9 <             9 v   X   v 9   P O ",
"W W W W W W W W W W W W W W W W W W W W W W W W T T n v T T T T T W T n v n v v v v v v v v v 9 9     <     v v   T         9 X ",
"W W W W W W W W W T W W W W W W W W W T T T W W W T W v T T T A T W W T v T T W T T n T v v v v <     v <   9 v T S v     n T n ",
"W W W W W W T W W W W W W T W W W T W W W T T T T T T T W v T T T W T T T W T W T W v v < T v v v v v <   X < v v v v   v 9   P ",
"W W W W W W W W W W W W W W W W T T W T T T T T T T T T T T T T T T T T T W T W W T T v v W v v v v 9 v v 9 v v v v v   n v P X ",
"W W W W W W W W W T W W W n W W T T W W T T T T T T T T T T T T T T T T T T W v T T D F v T T v v v v v v n v T n n v   v v G   ",
"T T T W W W W W W W W W T T T T W T T W T T T T T T T T T S T T T T H T T W T T T T T W T W W v T v v T n v n v v n   I G   G P ",
"W T T W T T T W T W T W T W T T W W T T T T T T T T T T T T T T T T T T T T T T T T T T T n W v v n v 9 v v v 9 v T X I v 9 n   ",
"T T T W T T T T T T T T W T T H A T T T T T T T T T T T T T T T T T T T T T T T T T T T T T n v v T n 9   v n v v v @ X v v v G ",
"T T T T T T T W T W T T T W T T T T T T T T T T T T T T T T T T S T T T T T T T T T J T T K T n T n n   E O < W T T O   n v v v ",
"T T T T T T T T W T T W T W T T W T T T T T T T T T T T T T T T T H K T T T S T T T T T T T T T T W v   E   W W n v T v v v v G ",
"T T T T T T T T T T T W W T T T W W T T T T T T T T T T T K T T T T H T T T H T T T T T K T T T T n n v v v n T v v v n v v G G ",
"T T T T T T T T T T T T T T T T T T T T T T T T T T T T T T T T K T H H T H T T T T T T T K T T W T T v n n n v v v n G v v G G ",
"T T T T T T T T T T W T T T T W T T W W T T T T T T T A T T T T T H T H S T T T T T T S K T W T n T T n T T v v v v v G v v v 9 ",
"T T T T T T T T T T T T T W T T T T T T T T T T T T T T T H T T T K H T T T T T T T T T T T W T T n W n T T v v n v 9 v 9 9 G 9 ",
"T T T T T T T T T T T T T T T T T T T T T T T T T T T T H H K K K K S T T H H K K S T T T T T T T n n n T T v v n v G v 9 9 G 9 ",
"T T T T T T T T T T T T T T T T T T T T T T K T T K T T T S K K H S S H H K T T T T T T T T T T W T v v v n v n v v v 9 v G 9 9 "
};
