/* XPM */
static char *texture[] = {
/* columns rows colors chars-per-pixel */
"64 64 60 2",
"   c #5E5651",
".  c #635C55",
"X  c #6A6757",
"o  c #6D6963",
"O  c #726C65",
"+  c #777369",
"@  c #7B7875",
"#  c #534D43",
"$  c #595844",
"%  c #898787",
"&  c #908E92",
"*  c #959499",
"=  c #8D8D91",
"-  c #827D7A",
";  c #817E80",
":  c #908C8C",
">  c #9B9CA3",
",  c #9DA1AA",
"<  c #85817C",
"1  c #7F7E84",
"2  c #A09EA3",
"3  c #A1A3AB",
"4  c #A5A9B4",
"5  c #8E9094",
"6  c #ABB1BD",
"7  c #91908D",
"8  c #ACB3C0",
"9  c #80776A",
"0  c #B0B4C2",
"q  c #9FA6B0",
"w  c #706C5C",
"e  c #726F70",
"r  c #605D4A",
"t  c #8F908F",
"y  c #64624C",
"u  c #72715D",
"i  c #54523A",
"p  c #504E39",
"a  c #5F6050",
"s  c #494934",
"d  c #44452C",
"f  c #4E5037",
"g  c #383825",
"h  c #3D412A",
"j  c #403E2A",
"k  c #4F5040",
"l  c #28291A",
"z  c #33351C",
"x  c #2C311B",
"c  c #2D2D20",
"v  c #312E20",
"b  c #322F1E",
"n  c #2E3121",
"m  c #403E30",
"Q  c #080804",
"W  c #12120E",
"E  c #3C3D31",
"R  c #1D2217",
"T  c #1A1E16",
"Y  c #3E4032",
/* pixels */
"  . . . . . . . . X X o X . . O O O O O O o O O O O X + O o o o o o @ O O @ @ + + + O o O o o X . O X X   #   . . . X . o $ # $ ",
"% & * = % - - - % @ @ @ O o @ @ - % % % ; - % % - - - : % % % % % ; % % & * % % : % - @ - - @ % @ ; % ; ; - - % % % % % % @ O @ ",
"* * > , * = = = % = % = % ; % % % % % % % % & % % = = = * * = = % ; % * * > * * * % % < % & = * = % % % = * * * * * = % % 1 ; % ",
"= * * > > > * * * * * * * * * * % % % : * * * * * , > * > * * & % % & * > 2 * * * % % % % * , > > * % % = * > * * * = & = % % % ",
"* > * > > , , , > > , 3 > 3 , > > * * > > > > 3 4 4 4 > 3 , * % - % % > , 3 * > > * % * * * * * * * & = % * * * & = & = % % % % ",
"> > * > 4 4 , * > , 4 4 > 4 , 3 , 3 3 , 4 4 4 4 4 4 4 4 3 > * % - % * > , 3 3 3 3 > * * * > > , , * * = = * * * * * = % % % % % ",
"* 5 > , 4 6 , * * , 4 > > , , 3 , , 4 4 > 3 4 4 4 4 3 3 , * 7 % % % * , 4 3 3 4 4 4 > * * * > , , , 5 = = * * * * * & % % % % = ",
"5 = > , , , > * * 3 3 > > 4 3 2 3 4 4 6 3 3 > 3 4 2 2 > * 5 % : : * * 3 4 3 3 4 4 4 > > * * * > , > * % = * * * * * * % % % % = ",
"= * , 4 * % * * * 3 3 > > 3 > * 4 4 4 8 4 , * > > * * > * % 7 * % < : * 4 4 4 3 4 4 * * * > , 4 4 4 , = = * > * * > * * % % % = ",
"* > 4 4 3 > 3 * > * * > , 3 * * 4 6 4 4 4 3 > > * > 2 > > * * 7 - 9 - * 4 4 4 4 4 , * * > , 4 4 0 4 4 * % = * * > > > * % % % * ",
"* > , 4 3 3 * * 3 * * * * = * 2 , 4 4 4 4 * * * > 3 3 3 * * * % - - % * 4 6 4 4 4 , > > > 4 q 3 4 4 , * = * = * > > > > % % = * ",
"* > > 3 * * = * 3 * * % % % * * * 4 3 3 > * * > 3 > , * % % % < - < : * > 4 q , 4 3 , > > 4 3 3 4 4 > > * * * * * > > * % % = * ",
"* * * * > > > * * * * * * * * * * > > > * * * > > 3 > * = % % - - < % * > 4 4 > * * * * > * & % * > * * * * * * * > * * : % = * ",
"* @ @ @ % > , * * * = * * * * * * * * * * * > > 4 4 > > * % % - - - % * * > > % < @ @ * * % - - < % % < < % % % % * = % % * * * ",
"- @ + o @ * > * * = * * * > * * * * * * * , 3 3 3 3 > * * : : 7 : % * * & % - @ O O O < : < - - < % : % + @ @ @ - @ % < % * * % ",
"< @ O o @ * > * % * * * > * * * * > > > > 3 3 3 > > > 3 * * * * : * 3 3 & - O O O @ O - % @ - - < % % % % - - @ - % % % & * * % ",
"* % @ O % 3 > * * > * > > * * * > 3 , , , > > > * * > 4 * > > * * > 3 * * = = % % % % & % % % % % : % % % % @ - % % % % * * 5 * ",
"* * * % * * > > > > * > > * * * > > > * * 3 > * * * 3 , * > 3 * * * % * * * * * * * % % % % % % : & % % % % - < % % % % % * * * ",
"* * * % % = * * * * * * * > > > > * * * * * * * * * > * * > * * * < @ % : : % % : % - @ % - % % : % o + % % % < % % % % % = & & ",
"= = = % % * = > > * : * > * * * * : & * * * = & * * * * * * * * * : % % < @ < < - + O O - % % : % - O @ - % % % % % % % % % % % ",
"@ @ % % & * = = * : % * > * % % % % % % * * * * : & & * > * * * : - < - @ @ @ @ + X . o + - % : % % % % % % % % % % % % < % - - ",
"@ @ @ @ % & % % % < < % : % % % : : & : : & * % - % * * * % % < @ + @ @ + + O + X X . X O O @ < % % % = % % % % % - % % - - < - ",
"@ @ @ o @ % % % < - - - % % % : : * : : % : % + @ % 7 % < + + + X w o + o o o o X .   o X w O + @ - % % % % % % % - - @ @ @ @ @ ",
"e o + o @ % % % - - - - % * & * % * : % & * % @ @ % % < + O O + w . X O X X O X . r . X X O O + w + - - % % % % - @ @ @ + + @ @ ",
"@ + o o @ - < < % < < % * * & * % & * * * * * * : * * * < + - < + w X X o O O X X . X o X X O + @ - % % % < % % - @ @ - @ @ @ @ ",
"@ @ O o + < < % % % % % : & & * & = * * * * * * * * > * & % : % < + O + O O O o X X o O O + - % % % % % % % % - @ @ @ @ @ @ @ @ ",
"@ @ @ o + - - % % % % % : % * = * * * * * * * * & % * = % * % 7 % @ @ @ + O + + + @ @ - @ - % & = * = % % % - - @ @ - @ @ @ @ @ ",
"@ o o O + @ - % % % % * % % % = * * = % * * * * * % % % % * * & % - - < - - - < % * & % % % & * * = = % % % - @ @ @ < - @ % @ @ ",
"@ + O @ + < % % % - : = % % % = * & % % & & * * * & & % % % * = % % % % % % % & * * > * = % * * * % % % % % - @ @ @ @ % % % ; @ ",
"@ + O + @ @ - % - % * * % % = * * * % = * * * * * * * % * * * * % % % % % * * * * * = * % % % * = % % % % % - - - @ @ @ @ @ @ @ ",
"@ + + + O + @ - % % % % % * * * * % % * * & * * * * * 5 * * * * % = * * * * * * * * = * = = & = % % % % % % - @ @ @ @ @ @ @ @ @ ",
"@ + + X X X o @ - - - + @ t 5 * * % * * * * @ < * * * @ % * * 5 % * * * * * * * % % % = * & = * * & % % % % @ @ @ - @ @ @ @ @ @ ",
"@ + + X r X O - - - < + @ % * * * * * * & * % < = * : @ % * * * & % * > * = * * * & = = = = = & = % % % % % @ @ - - @ @ @ @ + + ",
"o O o X $ X X w + < @ + + < 7 * * * 7 < - 7 7 % * * % @ % * * * % < % 3 * * * * * * * * = = % % % = % % % % % @ - @ @ @ @ + o o ",
"X X X . r $ $ y X + w y w + < % % < + X u + < % % % % @ % % % % % + % > * * = & = * * * % * % + % % % @ @ @ @ @ @ + + + + o X X ",
"X X X $ $ $ $ r X o O y X + + < < + X X X + - < @ < < @ % % < @ < X @ * * * = * % % % % % & < O @ % % @ o + + o + O O O o X X X ",
"X X r $ $ r r r X O O y X X w + % < + w X @ @ + w + - - % = % + 9 w + % % % % % % @ @ @ % % @ O + % % + o o O o + o X o o X X X ",
"r $ $ $ $ $ $ r X X X X X X O - < < + + @ < < @ + + % % @ @ + + + w X + @ o O + o X O + - + o + + + + O X X X X o X X X X X X X ",
"$ $ $ $ $ $ $ $ . r $ r r X X @ @ @ + + @ < - @ @ @ - < + X w + + O X X O + X X + w X O o o + + + + O o X X X X X X r r . r X $ ",
"$ i p $ $ $ $ $ $ $ $ $ $ y $ X + + + O + @ @ @ + + % + X w + + + X w X X + + O X O + + o O + + X O O O X r y X X X X y a $ X $ ",
"$ i $ $ $ $ $ $ r $ $ $ i $ i r + + + w O + + X X w + + X + + + + O X w X X w w X X w w w X O O X X O X X $ r X X X y X y y $ $ ",
"$ $ $ $ $ $ # $ $ $ $ $ p $ $ r O + X X X O O y X w X X u u + + + + X u + w X X X X X X X X X O X X X . r $ $ y y X y y y $ $ $ ",
"$ i s s p $ i $ $ $ $ i $ $ $ $ X X r r y + w X X w w w + u + + + + + u w X X X X X X X X X X X X X X X y $ y y $ y y $ y r y $ ",
"i i d s s s i $ $ $ p i i p p $ y r r r X + X X X X u w u u + w + u u X X X X y X X y X X X X X X X y y y y y y y y X y y y y $ ",
"i i d p p s s s $ p p i $ $ i $ $ r $ $ y X r y X u u u u w X X u u X X X X y y y y r y X y X X X X y X y r y y X X y X X r y $ ",
"i i s p i s i p $ $ p i $ $ $ i $ $ $ $ r y X X X X u w + w X X w X X X X y $ $ $ $ $ r y $ r X X $ $ X r i r r X y $ r r $ $ $ ",
"p p i i i r $ i r y i $ $ i $ $ $ $ $ $ y y X X X X w X X X X X X X X y y $ $ i i $ i $ $ $ $ $ $ s p i p s i $ $ $ $ $ $ i i f ",
"p i i i $ y $ $ X y $ $ $ $ i i $ $ $ $ r y y y X X X y X X X X X y $ $ $ i p i s p s i i i i s s s i p p p i $ i p s i $ f f s ",
"i i i i r r r $ $ $ y $ r $ i s $ y $ $ r y y r y y y y X X $ $ r $ $ i i s s s d s s s s d s d d d s s s s i i i s s s i s d d ",
"i i i i $ $ $ s s i i i i i i s $ y $ i $ y y i $ $ $ $ X y s s $ i i i i d g d d d d s d d d d h d s s s s s f i s s d i d d d ",
"d s i f i s i j h s s h d s g g s i s s s s i d s s d s s k g g s d d d s g l z z g g g g z g g g d s d d s h s s d s d d d d d ",
"l l x z g g c c c c l l l l l l c g g c l l g c c c c c g c l l v b z z z z l l l l l l l l l l l l l l l l l l l l g l l l z z ",
"l l l l v c l n l c l l l l l c g g g g g g g g v g g g g g c g g g g g g g l l l l g l l l l l l l l l l l l l l l l l l l l l ",
"z g g g g g g g g g g g l c n g s g m g g h g g g d d g g j g g s d d j g g g l x g g g l c l l l l l l l g g g g g g g z g g z ",
"g d d d d g g g g h g g g g g g s s s s s s d d g s s s d d g s i i i p s s g g g d s d g g g g g g g g g g g g g g g g g g g g ",
"s s g d g g g g g s s g g s h s # s s s i i d i d s s s p s g i i i i i y $ d g g s i s s s d g g s $ s s $ s j j g g g g j s s ",
"s g g g g g g g g s p i s s s s i s i i i i i i d s s s i i d p i i i i $ y p j d s p i $ p d d s s i s s i p s d d d d d d s s ",
"j g g g g d s d j j g g s i s s i $ $ i i i i d d i d s i i s s $ i p d i $ s s s s p i $ i s s s p r s s p p s s d d d d d s d ",
"z g z g g g d s d c Q Q g i s d s $ i i i i i d d p i i $ $ s s i i s s p $ $ i p $ $ $ $ $ i s s s $ i i $ $ i i s s s d g d d ",
"z z x x z z d g s c W W g i d g s p i s i $ $ i i i i $ $ i f $ $ s s i $ $ $ s i $ $ r X $ $ i i s s p $ $ $ $ $ i s s s d g z ",
"z z z z h d g g d s g E s s h g g s g d i i r $ d s i $ i i f f s d i i X y p s f $ X X X $ $ $ $ $ $ $ . . $ p i s s s s s g z ",
"z z h d g g g z z h s d d g g g g g g g h d s s d d s s s s s d d f s s p $ $ s s $ X X X X $ i $ $ . $ $ $ $ s d d g g g g z z ",
"n x h h g z x x x g g g g x x n g g g g g g g h d s s s s h h g h d d s s s s d s i i $ # $ i s s s s s d s d g g g x l l x l l ",
"n x g s g z R R R R l l l T T R l l l R l l c g g g Y g d s g g g g z s s g g g g s s g s s g x n n g n l l l l l l R l l l R n "
};
