/* XPM */
static char *texture[] = {
/* columns rows colors chars-per-pixel */
"64 64 22 2",
"   c #584837",
".  c #45392C",
"X  c #604E3B",
"o  c #695641",
"O  c #64523D",
"+  c #4D4032",
"@  c #866C50",
"#  c #7A6349",
"$  c #725C44",
"%  c #493D31",
"&  c #3D3328",
"*  c #937656",
"=  c #83694C",
"-  c #8D7152",
";  c #8C704F",
":  c #51402E",
">  c #503F31",
",  c #5E503E",
"<  c #70593F",
"1  c #4E402F",
"2  c #3C2F24",
"3  c #604E41",
/* pixels */
"  . . .       . X   o X     O   .       O           O O   . + O @ @ # o # # $ X .   O     % % %   . . .       . O O   o # $ o   ",
"  . . %   X o         o o   o   .       . % +       X O % % . X @ o     o $ # $       +   . . %   % . .   O   % X O X $ # # X   ",
"  & & . O # * * o   O O o   .   +   O O .   O o       O + & .   $ o o o @ @ # o       % + & & .   % . + O O   +   O X $ $ # O   ",
"  . .   $ = - ; o O o O o   +   %     o   O         O X   .   O $ o o O = O           +           . & % O     .       O O $ $ O ",
"X     X # * = = o X X X         .     O       o       O   +   o $ $ o O o o o         %       O   . . %       . X       O o o   ",
"O       $ @ = # O         $ - = %           O         X % + .   # # # O $ o o       X     .   O .   O         . X X   O $ o     ",
"o o O   O # @ # X       o = * -       O .       O     o + . .   $ $ o O $ $ o   O X           O . %     O     .   O O o o       ",
"o O O O $ = $ # X o     $ - - = % +   O         o O   O       O $ O o X # # $ O O O . .   X     . %     O     .       O   O X   ",
"O   O O # # $ #     + . # * = # :     O     X $ O O X o       O X   O   # $ $ o X   > .   X O   % + .         .       X O o o   ",
"    O O   o # #     . . o $ = = = # # $   X O o O O O o       O O O   O $ O o       o         O         . & &           O o   % ",
"o X o o   O # #     % . O # # # - # # o   O X O O O o o   O o   $ X   X X             .       O %       % & .           $ $   % ",
"$ O o o O o # #   %   . # = $ # = $ $ O   O O $ o         O             O O   X o O             . +     . . .         O O O O   ",
"o O O o o # $ o O     . O $ $ # - = = # o $ $ # o O   X   +   o       . o     X o o o   + % .   . +     & . %     .   o   O o   ",
"o   O o O o O O     + . . X # = * = # # O # # # O O O o , + O o           .   :   O o   +       . %     . & .         o O o o   ",
"o     o     o $     + .   O # # - # $ o X o $ $ X O O o     X o o     . :     . o O O     +   o .       . . %     X     o o X   ",
"o X o X   o X o     % . X $ $ O $ o o     o o $       O     + %     X           $ o   + + . +   +       . % %     X o         + ",
"o         o o X       .   $ O O X O O     O O O       X o   + . o O   . O     % O o   + % % %   .       . . .         o X X o   ",
"O O o   , o O O O     .     o $ O O O       O @ X       X X O   % . . &     O   O o o   + + +   . %     . . . %       o o O   % ",
"O O o       o o O     %     o # # $ $ X o # = = X       O     + O     % O     . X O O     +   X . %     % . %         O o O % % ",
"o O         $ $       .   X   O = O O   $ $ $ O o   %   X     +     O     . . + o X X   % % %   . +     % % .     . .   o O     ",
"o o o     o o o     + .   o o O $ O O   X O $ # o   .         . o     +       X $ o     . . .   +       % . .   +   %   O X O   ",
"o     X   o O X     % . +   O O $ $ o     O O $ O         :     X X   +       O o o o   . + .   %       % + %     +   o         ",
"      X   o o o       . .   o o # $ O O   X O $         O             . X X O o O o $ O . . .   %       % + +     . %           ",
"O           O o       %     O O O $ # $   $ < = O X     O o   X   :     O O O O $ $ O   . & . + .       . % %   + % %           ",
"o O     .             .   O X X - = O     o O $ O       X O O   $ X   X O X   O # #   + . . &   % %     % % %     % %         % ",
"o X X     o     X     .   o O X $ O       O O O O       o O O X $ o X X O       $ $ O   . . .   . % +     %   O   +   X O O     ",
"X       . +   O       .   X O o $ o O :   O O O   . .   $ $ o o O X O         O $ < # $ . . .   .       + . +     % %   o       ",
"o       . . O O   . % % +     O $ O O   X o $ #   . % + # # # o $ O o         $ # $ = $ . . &   .       . . .   . % .       o O ",
"o           X O       . > O     # $ $ X $ # = * O   + + # # $ O # $ $ o O     o # = # O . % .   .       . & %   . + %           ",
"          X           % %     O # # $ O # = @ * O   %   $ $ o X # # # O O     O # = @ $ . % .   %   X X   .   O % % %           ",
"                      . . . O O # $ o o $ # # @ O . .   $ $ o X # $ o X X     O = = * # . . .   %   O O 1 + .   . & . +         ",
"                      . %   O o o O o   O $ $ = X . %   # o     $ o o         O @ * @ $ . % +   %     o + % .   . . .           ",
"        .       X O   +   o X O O O o   $ @ @ * O + %   - @ # o o o o         o * * # o % . +   %         +     % . .   O       ",
"o       O O     O     +   O X X $ o O O O     O O   %   $ $ # # = O       X o O o $ o O + % %                 O . % .           ",
"O O     * * # O O     . +   O   o         & & .   . .   # # o o - = # o   o O O % +   O . . .   +     O       , . . &   O       ",
"        = - = $       . +             +   % % +   . % % # $ o O O $ # $     O O +     O         %     O   X o   . % .   o       ",
"O       # @ - # O     + %                 + . .   + +   # o o   # # o O     o o +     O o ,               O X   . % .   O       ",
"o   .   # = = # O     % + & . . o O       % . &   % . + @ $ $ X $ o o   X       .     X o   .                 O . . .           ",
"O   .   # = # O o         . . %           . . %   . . . $ $ $ O $ O O           .     o o       o   +     .   O & . %         X ",
"        # $ = $ O         % % % O o o     % % %   . . . O o O   # $ $ X       X %   X X     O   O   .         O . . %   O O     ",
"  o O   $ $ # # o O       + . .     % .   . . .   % . . O O O   o $ $         o %   X X   o O   O               + . %   o X     ",
"O       # $ o   o         % . . .   ,     & . .   . . . # < o   O o O         X .       O         O       o   . . & &   O       ",
"o       # # X             % % % . +       . . .   . . . - # $ $ O O O           .       O         O         + % +       X O     ",
"o       $ # o X           % . . . .       . . %   % + + - = # # # $ O X         %     O O   +   X         , + %     o o O       ",
"  . .   o $ # O           . . & . + %     . . .   . . % @ # # $ * = $ $         . +       . . + X             %   X   o O       ",
"  . + + O o o             . . . .         . . .   . . . # $ o O - = = #         . . :     %   .   % .   X         O     o     X ",
"o   +   $ o               % . . %         . + %   % . . * = = $ = # # $ X       .     O o   +     . . + o     + O     O O     O ",
"O   .   o X               . . . . +     + . % .   . . + o o O o = $ # o         .       X + . +     + .     + .         o O O O ",
"  . .     O               . . . . +       . . %   . & . & & 2   - = # o   ,     .         . . % X   %       + .         $ O O X ",
"  . % % O O o   O X       % % . & %       + %     . . % + % %   - = # #       o +     O   . . .   % . +     + .       X o X X   ",
"X + .   O o   % O X       % + . & +     X + .       o o . % +   - = # $ .     X .       O   %     . . %     + . +     O X     O ",
"  + %   o $   +           . . . .     X   . . +       o . % .   = $ o O O o o o . % %     % %     + .   X     .         O   O o ",
"  . . . o o O         X   . . . .     O   . . +         % . .   = # # $ * = # o . %       . % %   + %   O     .       o o o O O ",
"  % % . X o o   O     X X + % . . +     O   .           % % %   - = # # = $ $ X .         . + .   . % %     + .       o o o O X ",
"  % + . O o o   O O       . . . . %     O   % +         . % %   * # $ # = # # o %     X   . % .   . % .     % .       O o   O   ",
"  . . . o O     O         . . . . % %     . + +         . . .   # $ o O - = # # . +       . . .   % + %     % .                 ",
"  . . .       % X   X     . & . .         . %           . % %   O O O   - = $ $ . +       . . .   . . .       +       O o o O O ",
"  . . .     O %         O   . + .       O               % . .   O O O   # $ o   . +       % . % + . . .       .       o * * # o ",
"  % . .     . .             + . . +     O               . . .   $ O o   O O o   . +       % % %   . % %     + .       o - * = $ ",
"  . . . O O . .           . . . .     O O O   o       X . & .   # $ $ X O o o   .     O   . . .   % % % X     %   O   o @ - * = ",
"  . . . X X           X   . . : . %       o o       X o . . .   $ O X   $ o $ X +     O   % + %   . % .     + %       o # @ - # ",
"  % % .         O     o O       . . .       o         X . . .   $ O O   = $ $   %         % % %   . . .     + .       o # @ # o ",
"  . & .       1 O X O O O       .       o   %   X       . . &   # $ O O # o O   . +       . . %   % % .       %       O # # = $ ",
"  . . &         o O O X X O     .       o 3 %   O       . . .   $ $ $ $ $ o O   . .       % % .   % . .   X     o     o # $ = # "
};
