/* XPM */
static char *texture[] = {
/* columns rows colors chars-per-pixel */
"64 64 19 2",
"   c #584436",
".  c #49372C",
"X  c #513E32",
"o  c #634C3C",
"O  c #6B5341",
"+  c #4D3B31",
"@  c #644E40",
"#  c #745A45",
"$  c #503C2E",
"%  c #69503E",
"&  c #7C614B",
"*  c #3D2D24",
"=  c #402F26",
"-  c #866951",
";  c #82644D",
":  c #71553F",
">  c #7F6550",
",  c #907056",
"<  c #906F54",
/* pixels */
"  . . X       o       o O O o   + . + .   o @       # # O     X $   o   + X   o O % o   . + X         o o % o o o   + .   + . . ",
"o X     o O O O O O o # O O O O         o o o   o   O O o   X + . + . + + X o O # # # o X       o O # # % % O o   X . .     +   ",
"  + X     o o O O O # O   o o             o     O o o O @ o   X . . + .       o o % O o   X     % # & # # & & # O   X       + X ",
". . . . X           o o o o   . . . . +     X .   o o o   X . . . * . +             o o     $   O O o O # # # # % o       + + . ",
". . + . +     o O # # # O O O   . . + X     X .   o       +   + . . . +   + + X     o         o   o o % # # O % o     o   X + . ",
". .     X o O O # & # # # O o   . .   o o O   .   O   . + .     X + .     X +     o O o     o O O O O o O % O O O o   # O       ",
"  X     . .   % # # # # O O     . +   o O @ + =     + . . . .   . . . +   X . . . .   . .   O o o         o o O O   o # O o     ",
"X X . . . . X o O o O O     + + . . + X   X . . . . . . . + + + + + + + . . + . + X   . .     o o             o o     O o     $ ",
"X X X . +               . + + . . . .     . . . . . . . . + +     +   . . + X X +   X = .             o % o O O % o O # o   . . ",
"        .     o o           + . . .         X . . . + . + X X X . . + + + + X . .     . X       o o O # # & & # # # # # O       ",
"      X * . X               X . . . .       X + .   + . + . +   . +         + . .   X . X X   o # - ; & ; ; & # : # # & # o     ",
"O @   + + . . X   X + +       + . + + X   + + + + + . . . + X X + X   X     . . .   . . X o # - - - - ; - - ; & & # O O o o   o ",
"        X . = . . . X         X . + + . . + . . . . . + + . . . + + . . + + . X +   . .   o # & ; ; ; - - - ; ; & # % O O O O o ",
"o o o         . . . X       .   + . .     + + + . . . + + + X   + + + + . . + + + . . . .   O O # # # & & ; ; # O O % O O O O o ",
"# # # O o O o   . .                   o   + + +   X . + +               + X . . . + . . + @ O O O O O O # # # O O # % O O # & # ",
"# & & & # O   . = . . . . . + . . X X       . X   X . . + + .   o o     o O X + . + . . + o O % # # % # # # % O O o o o O # # & ",
"# # # # % o + * * +   + + + . . X .     @   .       X . .               X   . . . . + +     o   o O # # o O # # # # % # # # # & ",
"; ; # # O . * . .     . . . . X   X   o     . + X   . + + . . X   X   X     X     . . .   o # # # # ; - ; ; & # # # # ; - ; ; - ",
"# O O # O   . .   O     X X X     .   @     + + X     X + +       o   o O O o     X     o O # & & - - ; ; ; # O # # # # ; & & # ",
"o X X o o   .       . . . . +   X . X   . X X +   o o   X       o o o % O O o   + + X     o O % O # # # O O O o     o o % % O O ",
"o .       . . .   X   . . . . . . + . X . . + + X   X . . . X   X               + . .     O o o o # & & & # o       o o O % # # ",
"%   o O   . .   o X     . +     . .       + .     O @   X     o o O # O O o   o X +       O # # & - ; # # # O       o O # # & & ",
"  $ O # O     O O   X + . X   @   .   @         O o O     o O # # & & O O O     . .         o O % # # # # # #       o % # # ; # ",
"  .   O %   o %     + . . + X   . .   . . .               O O o # O o       X X   . + . + X X   o % ; - ; ; #       o o % # # o ",
"  . o & & o o o   + . . +   o @ X +     + . . +   o o o @ O % O # # O O           .   X X   O o O # & - ; & O %   o # # # # & # ",
"X . # ; # # # %   + . .   O # # o . O o       o O # # o o O # & # & - # # O o X . .         O o # % o ; - ; # # o # # & ; & & # ",
"  X & ; # & # O o + . .   O # # O o # o X   O # & ; ; # # & & & ; ; ; & # O o o   . + + . X     o O o & - - # O o O # # & # & # ",
"  . # # # O o o   . .   o o % O O o O   +   o # & & # O o # # & # # # O # o     . . . . + + + X X   . o o     X X       O O O # ",
"X X # o o @ o     + .   O # # O o       X       o % O o o % # O # # # # % o     + . . + . + + X . + . +     X   . X   o o o o o ",
"  . o @           .       o # # O o o     o o O # # O o % # # % % # # # O o       . .     X X X X   + .     X + . X   % O o o   ",
"o   O     X X + X .   o o O # # O O         o O O # O O O O # # # O % % o   X X     . X   . +   X X +       X . . .   @ @ O O O ",
"@   o     X + . . +   o O & # O     + . + + . X   o O o     o o O O # O o   . +   X . . . . +     X .       X + . . . +     O O ",
"X   X . . + + + . . .       X . . + +   + X + X + X       +             X   X +   + . . + . .       X     + + . + + + + + .     ",
"X . + . + + . + X X + + + + + + X X .       o o o O o   + +   o               X + + +     + . +   o   . + + + . +   + . +   X X ",
". + +   + . . . . . . + X       o         o % % O # # o           o o O o     X . X X X + X   + .     X . + + + + + + . X + + X ",
"    X + . . . . . X +     o @ o % o O # o o O O # & # # o   o % O O # # O o o       @ o                 + + +   + + X +         ",
"@       X . . . +   .       o     o # #   o # # ; - - - # o # # % # & # # # # # o o O o                           o o     o   o ",
"  o O o o     . X   . . X     o   O O O . % & ; ; ; - - & # & ; & & #     O # %   o o O     O O o   O O o o O # # # O O # O     ",
"  O O o   o O     O     o @   o O O # O X o > & # - - ; & # & - ; # o   o O # # o o         o       o # # o % o o O   o % o o o ",
"o O & # o   o     o   o O O   o O # & &     # & # ; ; ; # O O # o o       o O O % O o   . . o O o   .   # O o     o % o % O O o ",
"O # # # O   # % # & # # % o   o # o % @ X   O # # & & # # O # O o o   X .     o o % # # o o # - - # % o & - ; # # # # # & # # # ",
"O # # # o o # # # ; - ; # O   # # # # #     O # # # # % o # # # O o $ . . $ o o # & & ; ; - - ; & # ; # # - , ; - ; # & ; - # o ",
"o O & # % # # # # # # # # o   % # # & - % o # # # # O o o O # # O       .   o o % & & ; # # # ; ; # & - # ; - < - # o # & # O O ",
"o # # % % O # # # & # O o       % # & - # % # # % # %     % O O     + + .   O # # # # # O O # & # # # ; ; # ; - ; o . X o o o % ",
"  o O O       % O o o     % o O % # # ; # o % # O O o     O # %     . . X   o # # # # # % o o % O o # # & # # ; & % o O %       ",
"    O o X   X O # o   X   O o o # # & ; & o # # % # O     # & & O     .   o o & - & # # O o   O O o o O # & # # # % o o # o X X ",
"+       .             X   O O o O # # & ; & & O   o   $ X o O # %     .         # # # O O           O O O & ; ; & O     # O . . ",
"X       o O o o X   .   O o o   o o o % # %   +     . . .   o o   X + . + + . +   o o o                   O # # # o     # O $ X ",
"+ . X       o @     X   O           O # # O o       . . .   o o o   X . . + .       X                   o O # # O   . X % o $   ",
"          o           o O o   o o % # - ; # O o       . . O # # o X   X . X     o o   O   X + . .       o O % % o       O o . . ",
"% % # - & O     O .   O & # o % # & ; - ; # o . X o $ . . o # # o   X . . .   O O O % % X . . +           % # # O       O O     ",
"o o % # #   .   X . . o O o   o O & - - ; o   + . o   . .   # # o     + . + X   o o o O   . . . X     o o # - # # O   . o O o   ",
"          . . . . . .   o     X o # # ; # o   + +   X . *   % # o     X . . +   o o o     . . . X X   o o # & # O     X o o     ",
". + . X + . + X . + + X   X + +   o # - # o $ + .       . O # # # o     X .     O O o o     . .   X o % O # ; # %     X   o     ",
". +       + X . . . +   X . . .   @ # & %     +     O o   O > - # # o     .     o     O o   . +   O O   o # # # O             . ",
"+ +     . . . . . . . . + . . .   @ o O o   . . +       +   O O o O   X + . .       o O     + +   o o o O # # # # o   . . . . . ",
"+ .         X X       O   . . . . . o O       + X   O o   o O # # O o   . .   o o % # o     .     O # o O # # # # o           X ",
"    o   +       o O O o     . + +   o # O     .   o # # % % & # # # O O o     o o O # O o       o O # # & - - ; # %             ",
"  o   X       $   @ # O o o   +     O # O o   X   o # # o   @ O % # O % o     O O # # o         o # # # # ; ; # # O       X X . ",
"O   + .     . X       o     + . .   o O # % o   X   o     o # # # # # # # O     O # # # o       O # # # # & & O o O o       X X ",
"O   . .     .       o % o o o . X o % # # % o   X   o o   o O % o # # & & # o o O O O   +   X   % # # # # # # # % O O     . . o ",
"o   .   O O     % # & ; & - ; O o # & ; & # o   X O # O % O # # O # # ; & # o o o O o   . . X X   o O O # & ; # # # o o   .   O ",
"O   .   O o o o o # # # O O O o   o # # # # %     o # # # O O O O % # # # o o o % O # O     @ o O O O O O # # # O o o   . . +   ",
"o   +         o % # # %   o     X       O # # O   o # # o o         o o O X     o O O o o o o o   o O O O O % O o       . . .   "
};
