/* XPM */
static char *texture[] = {
/* columns rows colors chars-per-pixel */
"64 64 47 2",
"   c #220B1C",
".  c #140816",
"X  c #0D0714",
"o  c #151228",
"O  c #150D22",
"+  c #181935",
"@  c #15223C",
"#  c #222348",
"$  c #262A54",
"%  c #313D6A",
"&  c #385996",
"*  c #33457D",
"=  c #21193A",
"-  c #24345B",
";  c #273766",
":  c #234269",
">  c #326290",
",  c #274675",
"<  c #1A2546",
"1  c #3E3874",
"2  c #354485",
"3  c #2A6089",
"4  c #23567C",
"5  c #20112B",
"6  c #0E0E21",
"7  c #0C1428",
"8  c #221E42",
"9  c #332E5C",
"0  c #2B5D87",
"q  c #2D3871",
"w  c #1B1E44",
"e  c #0A030B",
"r  c #250D21",
"t  c #10040E",
"y  c #0B101E",
"u  c #1B4464",
"i  c #1A3658",
"p  c #18627D",
"a  c #194F71",
"s  c #3B5FA6",
"d  c #282F62",
"f  c #404C90",
"g  c #5662B4",
"h  c #1B3C62",
"j  c #185371",
"k  c #1D2C53",
"l  c #0F2038",
/* pixels */
"  . . . . . . . X X X X . . . . o O o O o + @ + + + # $ $ $ $ % & * $ # = = + O o O . . . . . . . . . . . . . . . . . . . . .   ",
"    . . . . . . . X X X . . . o o o o o o o + + + + # $ $ - ; : > , < + + + + O O O . . . . . . . . . . . . . . . . . . . . .   ",
"        . . . . . X X X . . . . o o o o o o o o + + = 1 2 - , , 3 4 < + + o 5 O O O O . . . . . . . . . . . . . . . . . . . .   ",
". . . . . . . . . . . . . . . . X X 6 7 o o o o @ + 8 9 ; : 4 0 0 ; # # o o o 5 o . . . . . . . . . . . . . . . . . . . . . .   ",
". . . . . . . . . . . . . . . . . X X X o o o o + + < $ - - - : - # = + o o o O . . . . . . . . . . . . . . . . . . . . . . .   ",
". . . . . . . . . . . . . O . . . . . X X O o o o + + < # # < < 8 = o o o O O O . . . . . . . . . . . . . . . . . . . . . . . . ",
". . . . . . . . . . . . . . . . . . o . . 6 6 7 o + + q < + + + + + o o O . . . O . . . . . . . . . . . . . . . . .   . . . .   ",
". . . . . . . . . . . . . . X . . . . . . o 7 7 o + + + + + + + o o o o o . . . O . . . . . . . .   . . . . . . . . . . . .   . ",
". . . X . . . . . . . . X X X X . . . X . . 6 6 w + + o o + + o o o o o o . O O O . . . . . . .     . . . . . . . . . . .     . ",
". . . X . X X . . . . X X X X X X . O X . . . O + + + o o o o o o o o o o O O o o . . . . . . . .   . . . . . . . .   . . . . . ",
". . . . X X X X X X . X X X X X X . X X . . . O O o o o . . o O . . O o o o o 5 5 . . . . . . . .   . . . . . . . .       . . . ",
". . . X . e X X X X X X X X X X . . X . X . . . O o o o . . . X . . . O o o o o r . . . . . . .   r       . . . .       . . . . ",
". . . . . e X . . . . . X X X . . . . . . . . O O O o o O . X X X . o O o + o . . . . . . . .   r r     .   . . . .   . . . . . ",
". . . . . . X X . . . . . . . . . . . . X . . . o O O o O 6 X X . O O o + + o . . . . . . . . .   . .     . . . . . . . . . . . ",
". . . . . . X X . . . . . . . . . . . . X X . . . O O o o 6 X O o . o o o o O . . . . . . . . . . . .     . . . . .   . . . . . ",
". . . . . . . . . . . . . . . X . . . . . . X X X . . X . X X X X O O O . . O . . . . . . . . . . . . . . . . .   . . . . . . . ",
". . . . . . . . X . . . . . X X . . . . . . . X X . . . X X . X X O O O . . o O . . . . . . . . . . . . . . . . . . . . . . . . ",
". . . . . . . . . . . . . . X X . . . . . . . . X . . X X X X X X . . . . . O o . . . . . . . . . . . . . . . . . . . . . . . . ",
". . . . . . . . . . . . . e e X . . . . . . . . . . . X X e X X X . . . . . O O . . . . . . . . . . . . . . . . . . . . . . . . ",
". . . . . . . . . . e . e e X . . . . . . . . . . . X . X X X X . . . . . . . . . X . . . . . . . . . . . . . . . . . . . . . . ",
". . . . . . . . . . e e e e X X X X X X . . . . . . . . X X e X . . . . . . . . . . . X . . . . e e . . t . . . . . . . . . . . ",
". . . . . . X X . . . . e . . . e e X X . . . . . . . X . X e . . . . . . . . . . . . X . . . . . t . e e . . .   . . . . . . . ",
". . . . . . . . . . . . X . . . X X X X X . . . X . . . . . . . . . . . . . X X X X X X X e e e e t e e e . . . . . . . . . . . ",
". . . . . . . . . . . . . . . . . . X X . . . . . . . . . . . e e e . X X . X e e e e e e e e e e e e e e . . . .     . . .     ",
". . . . . . . . . . . . . . . . . . . . . . . . . . . . . . . e e e e e e e e e e e e e e e e e e t e . . t . . .       .       ",
". . . . . . . . . . . . . X . . . . . . O X + O X . . . . . . e e e e e e e e e e e e e e e e e e e t . . t . . . . . . .       ",
". . . . . . . . . . . . . X . . . O . . O . . X . . . . . . . . X e e e e e e e e e e e e e e e e e e t . . t . . . . . . . .   ",
". . . . . . . . . . . . . . . . . O O O O . . X t X e X . . . . X e X X e e e e e e e e e e e e e e e t . . . . . . . . . . . . ",
". . . . . . . . . . . . . . . . . O o O . . . e e e e X X . . X . X X X e e e e e X e . X e e X e e e e e . . . . . t t t . . . ",
". . . . . . . . . . . . . . . O O o o O . . . . e e e X . . . . . X X e e e e e e X X . . . e e e e e e e t t t t t e e e t e . ",
". . . . . . . . . . . . . . . O O O o . . X X . . X e X . . X X X X X e e e e e e e . . . . . e e e e e t t e e e e e e e e e t ",
". . . . . . . . . . . . . O O O o o o . . . X X X X X X X X X X y X X e e e e e e e . . . e e e e e e e e e e e e e e e e e t . ",
". . . . . . . . . . . . . O O O + + o O . . . X X X . X X X X 6 X X X e e e e e e e . e e e e e e e e e e e e e e e e e e e e . ",
". . . . . . . . . . . . X X O o + o O . . . . . . X e X X . X X X X X X t e e e e e e e e e e e e e e e e e e e e e e e e e t . ",
". . . . . . . . . . . . X O O o o o 7 6 X X X X X . X X . . . . . X . . . . t e e e e e e e e e e e e e e e e e e e e e t t . . ",
". . . . . . . . . . O O O o + @ < o 6 X X X X e X X . . X . . X X X e . . t t e e e e e e e e e e e e e e e e e e e e t . . e t ",
". . . . . . . . . . O O o + < u i o O 6 X X e e e X X X . . X X X . . t . t t . t e e e e e e e e e e e e e e e e e t . . . . . ",
". . . . . . . O . O O O o o + i i @ o + + e X e e e X X . . X e t . . . . . t . . t e e e e e e e e e e e e e e e e . . . . . . ",
". . . . . . . O O O O o o + w : u i < 6 6 X X e X X X X . X X e e . . . . t t . . e e e e e e e e e e e e e e e e e e . . . . . ",
". . . . . . . . O O O 5 = = $ ; u p i o o O X X e e e X X X e e t t t . . t . . t . . e e e e e e e e e e e e e e e e . . . . . ",
". . . . . . . . . O o 5 = 8 $ - 4 a < + O . X X e e X e e e . . . t t . . . . . e e e e e e e e e e e e e e e e . . . e . . . . ",
". . . . . . . . O o + = 8 $ $ ; : < + o X X X e e e e e e e . . . . . . . . . . . e e e e e e e e e e e e e e e . . . . e . . . ",
". . . . . . . O O O + # # $ ; ; < + o o . . . X e e e e e e . . . . . . . . . . . e e e e e e e e e e e e e e e e . . . . . . . ",
". . . . . . . O O O + # ; & & $ + + o O . . X e e e e e e e t . . . . t t . . . . . e e e e e e e e e e e e e e X . . . . . . . ",
". . . . . . . O o + 8 $ , s * w + o o o . . . e e e e e e e e t t . e e t . . . . e e e e e e e e e e e e e e X . . . . . . . . ",
". . . . . . . O o 8 $ $ q * # + o o o O . . e e e e e e e e e e t e e t t e t . . e e e e e e e e e e e e e e e . . . . . . . . ",
". . . . . . . O o # $ ; ; ; $ + + o O O . t e e e e e e e e e e e e e t . e e e e e e e e e e e e e e e e e e e e . . . . . e . ",
". . . . . . . o + # d 2 , ; < + + o O . . t e e e e e e e e e e e e e e . . e e e e e e e e e e e e e e e e e e e X . . X e e e ",
". . . . . . . o + # ; * , - + + o . . . . e e e e e e . e e e e e e e e t e e e e e e e e e e e e e e e e e e e X e X X e e e e ",
". . . . . . . O + w f g i h < o . . . . . t X X e e e e e e e e e e e e e e e e e e e e e e e e e e e e e e e e e e . X e e e e ",
". . . . . . O o + < 2 , h j < o . . . . . . . . . . t . . e e e e e e e e e e e e e e e e e e e e e e e e e e e e e X e e e e X ",
". . . . . O O o + < i h u i @ O . . . . . . . . . . . . . e e e e e e e e e e e e e e e e e e e e e e e e e e e e e e e e . X X ",
". . . . O O O + < k , , k < + O . . . . . . . . . . . . . e e e e e e e e e e e e e e e e e e e e e e e e e e e e e e e e e e e ",
". . . . O O O + < i ; - < + + . X . . . . . . . X . . . e e e e e e e e e e e e e e e e e e e e e e e e e e e e e e e e e e e e ",
". . . . O O O o + < k $ + o o . X X . . . . . e X X e e e e e e e e e e e e e e e e e e e e e e e e e e e e e e e e e e e e e e ",
". . . . . O O o + + < w o O X X X X . . . . X e e e e e e e e e e e e e e e e e e e e e e e e e e e e e e e e e e e e e e e e e ",
". . . . . . O O o + + + o X X X X X . . . e e e e e e e e e e e e e e e e e e e e e e e e e e e e e e e e e e e e e e e e e e e ",
". . . . . . . O O o + + o X X X X X X X X e e e e e e e e e e e e e e e e e e e e e e e e e e e e e e e e e e e e e e e e e e e ",
". . . . . . 6 o O o + o 6 X . X X X X e e e e e e e e e e e e e e e e e e e e e e e e e e e e e e e e e e e e e e e e e e e e e ",
". . . . . X X X 6 7 + o X X X X X X e e e e e e e e e e e e e e e e e e e e e e e e e e e e e e e e e e e e e e e e e e e e e e ",
". . . . . X X X 6 7 l 7 X X X X X X e e e e e e e e e e e e e e e e e e e e e e e e e e e e e e e e e e e e e e e e e e e e e e ",
". . . . X X X X 7 7 7 6 6 X X X X e e e e e e e e e e e e e e e e e e e e e e e e e e e e e e e e e e e e e e e e e e e e e e e ",
". . . X X X X X 7 7 7 7 X X X X e e e e e e e e e e e e e e e e e e e e e e e e e e e e e e e e e e e e e e e e e e e e e e e e ",
"e . . X X X X X 7 7 7 7 X X X X e e e e e e e e e e e e e e e e e e e e e e e e e e e e e e e e e e e e e e e e e e e e e e e e "
};
