/* XPM */
static char *texture[] = {
/* columns rows colors chars-per-pixel */
"64 64 11 2",
"   c #160614",
".  c #230B1B",
"X  c #2C0D20",
"o  c #371125",
"O  c #310E22",
"+  c #0E0610",
"@  c #0A040B",
"#  c #40142B",
"$  c #11050E",
"%  c #2C101E",
"&  c #2D1021",
/* pixels */
"                                                                        . . X o o . . .                               .     .   ",
"                                                                          . . O o o X .     . .                                 ",
"                + +       +                                               . . X o o O .       . .                               ",
"                @           +       +                                   . . . O # o X         X .                               ",
"            + + + + +       +                                         . X . . X o O .         . .                               ",
"          + @   @ @ @ +     +         +                                 . X . X o o .         .                                 ",
"            @ + @ @ @ @ @ @ + + + +     +                                 . X O o o .         . .                               ",
"      + @ + @ + + @ @ @ @ @ @ @ + @ @ +                             .     . . O O O X . .     . .                               ",
"    @ @ @ @ @ @ @ @ @ @ @ @ @ @ @ @ @ +   +     @                 . . . . . . . X O . . .     . .                               ",
"@ @ @ + + @ @ @ @ @ @ @ @ @ @ @ @ @ @ @ + @ @ @ @               . X . X . . . . . . . . .     . .                               ",
"@ @ @ @ @ @ @ @ @ @ @ @ @ @ @ @ @ @ @ @ @ @ @ @ @ @           . O O o o . . . . . . . X .     . .   . . . . . .                 ",
"@ @ @ @ @ @ @ @ @ @ @ @ + + @ @ @ @ @ @ @ @ @ @ @ @     . .   . O . o . . . . . . . . . .     . X . X o X X X .                 ",
"@ @ @ @ @ @ @ @ @ @ @ + +   + @ @ @ @ @ @ @ @ @ @ @ $           .   . .     . .       . .     . O . . X X .                     ",
"@ @ @ @ @ @ @ @ @ @ @ + + + + @ @ @ @ @ @ @ @ @ @ @ $     $         . .   . .       . .     . X X                               ",
"@ @ @ @ @ @ @ @ @ @ @ @ + + @ @ @ @ @ @ @ @ @ @ @ @ $   $ @ $ $ $   . O .   .       .     . . . .                 .             ",
"@ @ @ @ @ @ @ @ @ @ @ @ @ @ + @ @ @ @ @ @ @ @ @ @ $   $ $ $ @ @ $   . O .                 . . .                 . . .           ",
"@ @ @ @ @ @ @ @ @ @ @ @ @ @ @ @ @ @ @ @ @ @ @ @ @ @ @ @ @ @ @ @ @ @   .                   . .                                   ",
"@ @ @ @ @ @ @ @ @ @ @ @ @ @ @ @ @ @ @ @ @ @ @ @ @ @ @ @ @ @ @ @ @ $           $   $       . .                 . . .             ",
"@ @ @ @ @ @ @ @ @ @ @ @ @ @ @ @ @ @ @ @ @ @ @ @ @ @ @ @ @ @ @ @ @ $ $     $ $ $ $                               .               ",
"@ @ @ @ @ @ @ @ @ @ @ @ @ @ @ @ @ @ @ @ @ @ @ @ @ @ @ @ @ @ @ @ @ @ $   $ $ $           .                                       ",
"@ @ @ @ @ @ @ @ @ @ @ @ @ @ @ @ @ @ @ @ @ @ @ @ @ @ @ @ @ @ @ @ @ @ @ @ @ $ $         .                   .                     ",
"@ @ @ @ @ @ @ @ @ @ @ @ @ @ @ @ @ @ @ @ @   $ @ @ @ @ @ @ @ @ @ @ @ @ @ $ $                       . .   . .                     ",
"@ @ @ @ @ @ @ @ @ @ @ @ @ @ @ @ @ @ @ @ +       $   @ @ @ @ @ @ @ @ @ @ $ $       .                   . . .                     ",
"@ @ @ @ @ @ @ @ @ @ @ @ @ @ @ @ @ @                 $ @ @ @ @ @ @ @ @ @ $           .               . . . .                     ",
"@ @ @ @ @ @ @ @ @ @ @ @ @ @ @ @ @ $                     @ @ @ @ @ @ $                               . .                         ",
"@ @ @ @ @ @ @ @ @ @ @ @ @ @ @ @ @       @               @ @ @ @ @ @ @                                                           ",
"@ @ @ @ @ @ @ @ @ @ @ @ @ @ @ @ @     $               $ @ @ @ @ @ @ $                             .                             ",
"@ @ @ @ @ @ @ @ @ @ @ @ @ @ @ @ @ $ $ $                 @ @ @ @ $                                   . .                         ",
"@ @ @ @ @ @ @ @ @ @ @ @ @ @ @ @ @       @             $ $ @ @ @                                       . .                       ",
"@ @ @ @ @ @ @ @ @ @ @ @ @ @ @ $ $   . $ @ @           @ @ @ @ @                                       .                         ",
"@ @ @ @ @ @ @ @ $ $ $ @ @ @ @   . . .   @ @ @         @ @ @ @ @ @                                         .                     ",
"@ @ @ @ @ @ @ @ $       @ @ $   % o . .   $           $   @ @ @ @ @                                       .                     ",
"@ @ @ @ @ @ @ @ @ $   .     . . o o % .       $           @ @ @ @ @ @                                                           ",
"@ @ @ @ @ @ @ @ @ @ @ $   .   . . . %     . . .               @ @ @ @ $     $                                                   ",
"@ @ @ @ @ @ @ @ @ @ $ $   . .     . . . .                     @ @ @ @ @ $                                                       ",
"@ @ @ @ @ @ @ @ @ @ $ $ $   .     $         $                 @ @ @ @ @ @ @                                                     ",
"@ @ @ @ @ @ @ @ @ @ @ @ @ @     $ @ @ @ @ @ @                     @ @ @ @ @ @                                                   ",
"$ @ @ @ @ @ @ @ @ @ @ @ @ @ @   $ @ @ @ @ @ @ @ @ @               @ @ $ @ @ @ @                                                 ",
"@ @ @ @ @ @ @ @ @ @ @ $ $ @ @ @ @ @ $ @ @ @ @ @ @ @               @         @ @ $                                               ",
"$ $ $ $ $ $ @ @ @ @ @ $   $ @ @ @ @ @ @ @ @ @ @ @ @ @ @         @           @ @                                                 ",
"    $ $ @ @ $ @ @ @ $   $ @ @ @ @ @ @ @ @ @ @ @ @ @ @                         $ @                                               ",
"$   $ @ @ @ @ $ $     $ $ @ @ @ @ @ @ @ @ @ @ @ @ @                             $                               $               ",
"          $ $ $   $     $ @ @ @ @ @ @ @ @ @ @ @ @ @                                                                             ",
"          $   $ $     $ @ @ @ @ @ @ @ @ @ @ @ @ @ @                                                         $             $     ",
". .                   @ @ @ @ @ @ @ @ @ @ @ @ @                                                                         $       ",
".                   @ $ @ @ @ @ @ @ @ @ @ @ @                                                                                   ",
". .               @ @ $ @ @ @ @ @ @ @ @ @ +                                                                   $ $         $     ",
".                 $ @ @ $ $ @ @ @ @ @ @                                                                       $             $   ",
".           . .             @ @ @ @ @ +                                                                             $ $ $ $     ",
". .   . & . . . .       $ @ @ + + + +                                                                             $     $ $     ",
". . % o o . % o &         @ @   + + + +                                                                                         ",
". . & o o & o & . .       @ +       + +                                                                                         ",
"    & o % . . . .                   @ +                                                                                         ",
"    & . . X                 +     + @ @                                               .                                         ",
"    . .   . .                                                                       . .                                         ",
"    . .     .                                                                                                                   ",
"    .                                                                                                                           ",
"            . .                                                                                                                 ",
"            .         . .                                                                                                       ",
"          . .         . .                                                                                                       ",
"  .   . . .           .                                                                                                         ",
"  . . . . .         . X                                                                                                         ",
"  . . & &           . . .                                                               +           +   + @ + @ @ @ $ @ $       ",
"  . . & & .             . .                                                           @ @ @ +       @ @ @ @ @ @ @ @   $ @ $ @ $ "
};
