/* XPM */
static char *texture[] = {
/* columns rows colors chars-per-pixel */
"64 64 25 2",
"   c #142846",
".  c #151934",
"X  c #121229",
"o  c #0D0714",
"O  c #0C040C",
"+  c #10040E",
"@  c #130612",
"#  c #0E1327",
"$  c #0E0E21",
"%  c #140D23",
"&  c #12243C",
"*  c #221536",
"=  c #184866",
"-  c #153855",
";  c #15334C",
":  c #16445E",
">  c #254B78",
",  c #262A57",
"<  c #0E2238",
"1  c #1F2C54",
"2  c #0E1C31",
"3  c #335393",
"4  c #230B1A",
"5  c #0E3249",
"6  c #2B0E21",
/* pixels */
"  . X o o o o O O O O O O O O O O O O O O O O O O O + + + O O + O O O O O O O O O O O O O O O + @ @ @ @ @ @ @ @ @ @ @ @ @ @ @ @ ",
"  . X o o o o O O O O O O O O O O O O O O O O O O O + + + O O O O O O O O O O O + + + + + O + @ @ @ @ @ @ @ @ @ @ @ @ @ @ @ @ @ ",
". . X o o o O O O O O O O O O O O O O O O O O O O O O + @ + + O O O O O O O O + + @ @ @ + + @ @ @ @ @ @ @ @ @ @ @ @ @ @ @ @ @ @ ",
"X # X o o o O O O O O O O O O O O O O O O O O O O O O + @ + + + O O O O O O O + + @ @ @ @ + @ @ @ @ @ @ @ @ @ @ @ @ @ @ @ @ @ @ ",
". # $ o o o O O O O O O O O O O O O O O O O O O + O O + + @ + + O O O O O O O O + @ @ + + + @ @ @ @ @ @ @ @ @ @ @ @ @ @ @ @ @ @ ",
". . # o o O O O O O O O O O O O O O O O O O O O + + O O + @ + + + O O O O O O O O + + + + @ @ @ + + + + @ @ @ @ @ @ @ @ @ @ @ @ ",
"X # # o o O O O O O O O O O O O O O O O O O O O O + O + + + + + + + O O O O + + + + + + + + @ @ + O O @ @ @ @ @ @ @ @ @ @ @ @ @ ",
"# $ $ o o o O O O O O O O + + O O O O O O O O O O O O + + + @ + + + O + + + @ @ @ @ @ @ + @ @ @ + O + @ @ @ @ @ @ @ @ @ @ @ @ @ ",
"$ o $ o o o O O O O O O O + O + O O O O O O O O O O O O O O + + O O + + + @ @ @ @ @ @ @ @ @ @ @ + O @ @ @ @ @ @ @ @ @ @ @ @ @ @ ",
"$ o $ o o o O O O O O O + + + + O O O O O O O O O O O O O O O O O O O O + @ @ + @ @ @ @ @ @ @ @ + + @ @ @ @ @ @ @ @ @ @ @ @ @ O ",
"$ $ % % @ o o o o O O + + + + + + + + O O O O O O O O O O O O O + + O O O + + + @ @ @ @ @ @ @ @ + @ @ @ @ @ @ O @ @ @ @ @ @ O O ",
"# $ % % % o o @ @ o O O + + + + + + + O O O O O O O O O O O O O + + + + O + + + @ @ @ @ @ @ @ @ @ @ @ @ @ + + @ @ + @ @ @ O O O ",
"X X @ @ $ $ @ @ @ @ @ O O + @ + + @ + O O O O O O O O O O O O O O + + + O O O + @ @ @ @ @ @ @ @ @ @ @ @ @ @ @ @ @ @ O O O O O O ",
"X X @ @ % % @ @ @ @ @ + O O @ @ + + O O O O O O O O O O O O O O O O + O O O + + + @ @ @ @ @ @ @ @ @ @ @ @ @ @ @ @ O O O O O O O ",
". X % % @ @ % @ @ @ @ @ + O + @ + + O O O O O O O O O O O O O O O O O O O O O + @ @ @ @ @ @ @ @ @ @ @ @ @ @ @ @ + O O O O O O O ",
". X X % % % % @ @ @ @ @ + O + @ @ @ + + O O O O O O O O O O O O O O O O O O O + @ @ @ @ @ @ @ @ @ @ @ @ @ @ @ @ @ O O O O O O O ",
"& X X % % % % % @ @ @ @ @ @ + + @ @ + O O + + + O O O O O O O O O O O O O O + + @ @ @ @ @ @ @ @ @ @ @ @ @ @ @ @ @ O O O O O O O ",
"  & X % % % % % % @ @ @ @ @ + + @ + + + O + @ + + O O O O O O O O O O O O + + @ @ @ @ @ @ @ @ @ @ @ @ @ @ @ @ @ O O O O O O O O ",
". . X % % % % % % @ @ @ @ @ + O O O O O O O + + @ @ + O O O O O O O O O O O O + @ @ @ @ @ @ @ @ @ @ @ @ @ @ @ O O O O O O O O O ",
"X X % % % % % X * @ @ @ @ o O O O + + O + + + + + @ + O O O O O O O O O O O O @ @ + @ @ @ @ @ @ @ @ @ @ @ @ O O O O O O O O O O ",
". X % % % % % % @ @ @ @ @ @ + @ @ @ @ O + + + + + @ @ + O O O O O O O O O O O @ @ @ @ @ @ @ @ @ @ @ @ @ O O O O O O O O O O O O ",
". . X % % % % % @ @ @ @ @ o @ @ @ @ + O O O O + @ @ @ O O O O + + O O O O O O O O + @ @ @ @ @ @ @ @ @ O O O O o O O O O O O O O ",
"X . X % % % % % % % @ @ o o @ o O O O O O O O O + @ @ O O O O O O O O O O O O O O O @ @ @ O @ @ @ @ O O O O @ o O O O O O O O O ",
"X X % % % % % @ % % @ o o O O O O O O O O O O O O + + + + O O O O O O O O O O O O O @ O O O O @ o O O O O o @ o O O O O O O O O ",
"% % % X % % % % o o o o o O O O O O O O O O O O O O O O + + O O O O O O O O O O O O O O O O O O O O O O O o o o O O O O O O O O ",
"% % X X % % % % $ o @ o o O O O O O O O O O O O O O O + + @ + O O O O + @ @ + O O O O O O O O O O O O o @ @ o o O O O O O O O O ",
"% . . $ % X X % @ o @ @ O O @ @ @ O O O O O O O O O O O @ @ @ + O + O + @ @ @ + O O O O O O O O O O O @ @ @ @ @ o O O O O O O O ",
"% % X X X X X @ @ o o @ @ @ @ @ @ @ O O O O O O O O + + + @ @ + + @ O O O O + O O O O @ @ O O o O O o @ @ @ @ @ o o o O O O O O ",
". . . X X X # o @ o @ @ @ @ @ @ @ @ O O O O O O O O O + @ @ @ @ O O O O O O O O @ @ + @ @ @ @ @ @ O O @ @ @ @ @ @ @ o O O O O O ",
". . . . X % % o o o @ @ @ @ @ @ @ @ @ O O O O O O O O O + @ @ @ O O O O + @ @ @ @ @ @ @ @ @ @ O O O O O @ @ @ @ @ @ O O O O O O ",
"    & X X X X o o o @ @ @ @ @ @ @ @ @ o O O O O O O O O O O O O O O O O O @ @ O @ @ @ @ @ @ O @ @ @ O O O @ @ @ @ @ O O O O O O ",
"= - & . X % o o o @ @ @ @ @ @ @ @ @ O @ @ O O O O O O O O O O O O O O O O O O O @ @ @ @ @ @ @ @ @ @ @ O O o @ @ @ @ O O O O O O ",
"; =   . X @ o o o @ @ @ @ @ @ @ @ o O @ @ @ O O O O O O O O O O O O O O O O @ @ O O @ @ @ @ @ @ @ @ @ @ @ O @ @ @ o O O O O O O ",
"& - :   X o o o o o @ @ @ @ @ @ @ o O o @ @ O O O O O O O O O O O O O + + @ @ @ O O + @ @ @ @ @ @ @ @ @ @ @ @ @ @ O O O O O O O ",
"  ; - . X o o o o o @ @ @ @ o O O o o O @ @ @ O O O O O O O O O @ @ @ @ @ @ @ @ @ + @ @ @ @ @ @ @ @ @ @ @ @ O O O O O O O O O O ",
"&     . @ o o o o o o o o O O O O O O o O @ o O O O O O O O @ @ @ @ @ @ @ @ @ @ @ @ @ @ O @ @ @ @ @ @ @ @ @ @ o O O O O O O O O ",
">   . , o o o o o o o o O O O O O O O O O O O O O O O O O O @ @ @ @ @ @ @ @ @ @ @ @ @ @ O O @ @ @ @ @ @ @ @ @ O o O O O O O O O ",
"=   . X @ o o o o o O O O O O O O O O O o O O O O O O O O O + @ @ @ @ @ @ @ @ @ @ @ @ @ @ O O @ @ @ @ @ @ @ O O O o O O O O O + ",
"- < . X o o o o o o O O O O O O O O O O O O O O O O O O O O O O @ @ @ @ @ @ @ @ @ @ @ @ @ @ O O O O O @ @ + @ O O O O O O O O O ",
"= , $ o o o o o o o O O O O O O O O O O O O O O O O O O O O O O @ @ @ @ @ @ @ @ @ @ O O O O O O O @ O O @ O @ @ O O O O O O O O ",
"- 1 $ $ o o o o o o O O O O O O O O O O O O O O o @ @ @ O O O O O @ @ @ @ @ @ O O O O O O O O @ @ @ @ @ @ @ O O O O O O O O O + ",
"  < # $ o o o o o o O O O O O O O O O O O O O o @ @ @ @ @ O O @ O O @ @ @ @ @ O O O O O O O @ @ @ @ @ @ @ @ @ O O O O O O O O O ",
"  & 2 o $ o o o o O O O O O O O O O O O O O O o @ @ @ @ @ @ @ O O O O @ @ @ O O O O O O O @ @ @ @ @ @ @ @ @ @ O O O O O O O O + ",
"  < < # # # o o o o O O O O O O O O O o O O O o @ @ @ @ @ @ @ O o @ O O O O O O O O O O + @ @ @ @ @ @ @ @ @ @ @ @ o @ O + @ + + ",
"< & . . # o o o o o O O O O O o O o O O O O O o @ @ @ @ @ @ @ @ @ @ O O O O O O O O O O O O @ @ @ O O @ @ O @ @ @ o @ @ @ @ @ @ ",
"3   2 # o o o o o o o O O O o O o o O O O O O O @ @ @ @ @ @ @ @ @ @ @ @ @ O O O O O O O O O O O O O O O @ @ o @ @ @ @ @ @ @ @ @ ",
">   < # # o o o o o o O O o o o O O O O O O O O O @ @ @ @ @ @ @ @ @ @ @ @ @ @ O O O O O O O O O O O O O O @ @ @ @ @ @ @ @ @ @ 4 ",
"5   2 # # o o o o o o O O o o O O O O O O O O O O @ @ @ @ @ @ @ @ @ @ @ @ @ @ O O O O O O O O O O O O O O @ @ @ @ @ @ @ @ @ 4 4 ",
"  & # # o o o o o o o O o O O O O O O O O O O O O @ @ o @ @ @ @ @ @ @ @ @ @ @ O O O O O O O O O O O O O O O @ @ @ @ @ @ @ @ @ 4 ",
"  & # # o o o o o O O O O o O O O O O O O O O O @ @ @ o @ @ @ @ @ @ @ @ @ @ @ @ O O O @ + O O O O O O O O O + @ @ O O O O @ @ 4 ",
"  & # # # o o o O O O O o o o O O O O O O O O O + O O O o @ @ @ @ @ @ @ @ @ @ @ O O @ O O O O O O O O O @ @ @ @ O O O O @ @ @ 4 ",
"  & # o o o o o O O O O o o o O O O O O O O O + @ @ O o O O @ o @ @ @ @ @ @ @ O O O O O O O O O O O O O @ @ @ @ + O O O @ @ @ 4 ",
". # # o o o o o O O o o O O O O O O O O O + + O @ @ O O O O @ @ @ @ @ @ @ @ + O O O O O O O O O O O O + @ @ @ @ @ @ O O O @ @ @ ",
"# # o o o o o O O O O O O O O O O O O O O O O O O + O O O O @ @ @ @ @ @ @ @ O @ @ O O O O O O O O O O O + @ @ @ @ @ @ @ o o @ @ ",
"# # o o o o O O O O O O @ @ o O O @ @ O O + + O + O O O O O O O O @ @ @ @ + O @ @ O O O O O O O O O O O + @ + @ @ @ @ @ @ @ @ @ ",
"# # o o o o O O o + O O o @ @ @ @ @ @ @ @ @ O O @ + O O O O + O O O O + @ @ @ @ O O O O O O O O O O O O O @ @ @ @ @ @ @ + @ @ @ ",
"o o o o o o o @ @ @ O O @ @ @ @ @ @ @ @ 4 @ @ + + O O O O O + O O O O @ @ @ @ @ O O O O O O O O O O O O + @ @ @ @ @ @ @ @ @ @ @ ",
"o o o o o O o @ @ @ @ @ @ @ @ @ @ @ @ 4 @ @ @ @ O O O O O + O O O O O O @ @ @ O + O O O O O O O O O O O @ @ @ @ @ @ @ @ @ @ @ @ ",
"o o o o o O o o @ @ @ @ @ @ @ @ @ @ @ @ @ 4 @ @ + O O O O O O O O O O O O O + O + O O O O O O + + @ @ @ @ @ 4 @ @ @ @ @ @ @ @ @ ",
"o o o O O O o @ @ @ @ + @ @ 4 4 @ @ @ @ 4 4 @ @ + O O O O O O + O O O O + @ O O + @ O O O @ @ @ @ @ @ @ @ @ 4 @ @ @ @ @ @ @ @ @ ",
"o o O O O O @ O @ + O O @ @ @ @ @ @ 4 4 4 @ @ @ @ O O O O O + @ O O O @ @ @ O O + + + O O @ @ @ @ @ @ @ @ @ 4 4 @ @ @ @ @ @ @ @ ",
"o o o O O O O O O O O + + @ 4 4 4 4 4 @ @ 4 @ @ @ O O O O O + O O O O @ @ @ @ O O + O O O @ @ @ @ @ @ @ @ @ 4 6 4 @ 4 @ @ @ @ @ ",
"o o O O O O O O O O + @ @ @ 4 4 4 4 4 + @ @ @ @ @ O O + + + O O O O + + @ @ O O + @ + @ @ @ @ @ @ @ @ @ @ @ 4 6 6 6 4 4 @ @ @ @ ",
"o O O O O O O O O + @ @ @ @ 4 @ 4 @ @ + @ @ @ @ + O O O + O O O O O O O O O O O + @ @ @ @ @ @ @ @ 4 @ @ @ @ @ 4 6 6 6 4 4 4 @ @ "
};
