/* XPM */
static char *texture[] = {
/* columns rows colors chars-per-pixel */
"64 64 43 2",
"   c #160714",
".  c #230B1B",
"X  c #2B0E21",
"o  c #351126",
"O  c #10050E",
"+  c #0C040B",
"@  c #0C0814",
"#  c #160D23",
"$  c #151229",
"%  c #151936",
"&  c #1A2C52",
"*  c #284B81",
"=  c #274274",
"-  c #222B59",
";  c #23244B",
":  c #0D0E20",
">  c #182648",
",  c #3A4788",
"<  c #22325B",
"1  c #4558A1",
"2  c #3F3B77",
"3  c #14223C",
"4  c #171E40",
"5  c #0D1227",
"6  c #281226",
"7  c #42152C",
"8  c #491832",
"9  c #551B37",
"0  c #300E22",
"q  c #231734",
"w  c #163758",
"e  c #273D6B",
"r  c #174668",
"t  c #0E1931",
"y  c #1A5276",
"u  c #193C61",
"i  c #4364A4",
"p  c #365B95",
"a  c #245281",
"s  c #1C4C73",
"d  c #293A77",
"f  c #2A101F",
"g  c #3A1932",
/* pixels */
"      . X .       . .   . o .     O + + + + + + + + + + @ + @ @ @ + @ @                         @ @ @ @ @ # $ $ $ % & * = - - ; ",
"      . . .       . X . o X .       + + + + + + + + + + + + + + + + + + @ @     @ @   @       @ @ @ @ @ @ : $ $ $ $ > = = , , > ",
"          . .       . . X . .     O + + + + + + + + + + + + + + + + + + @ @ @ @ @ @ @ + + + @ + + @ @ @ @ : @ @ $ % & < = 1 , % ",
".       . .           . .         O + + + + + + + + + + + + + + + + + + + @ + + + + + + + + + @ @ @ @ @ @ @ $ 2 $ % 3 > < > % 4 ",
". .   . . .                 . .   O + + + + + + + + + + + + + + + + + + + + + + + + + + + + + + @ @ @ @ @ @ $ ; # $ $ % > > > > ",
". . . . .                 . .     O O + + + + + + + + + + + + + + + + + + + + + + + + + + + + + @ @ @ @ + @ @ @   # $ % % > > > ",
". X .               .   . .           + + + + + + + + + + + + + + + + + + + + + + + + + + + + + + @ + + + + + @ @ : $ % % < > % ",
"  . .                   . . . . .       + + + + + + + + + + + + + + + + + + + + + + + + + + + + + + + + + + @ @ @ $ $ % > > 4 % ",
"      .                 .   . . .         + + + + + + + + + + + + + + + +   + + + + + + + + + + + + + + + + @ @ # # $ % 3 % % $ ",
"      .                     .               + + + + + + + + + + + + + + + O + + + + + + + + + + + + + + + + @ @ @ 5 $ % $ 5 5 5 ",
"        .               .         O         + + + + + + + + + + + + + + + + + + + O O O + + + + + + + + + @ @ @ @ 5 $ $ 5 5 $ $ ",
"        . .                       O O         + + + + + + + + + + + + + + + + + + O       + + + + + + @ @ @ @ @ @ @ @ # $ $ % % ",
"          .           .       O + + +       @ + + + + + + + + + + + + + + + + + + O             + @ @   @ @ @ @ @ @ @ : @ 5 5 5 ",
"        . .   . .             + + + +       @ + + + + + + + + + + + + + + + + O + +                 @ @ + + + @ @ @ @ @ @ 5 5 5 ",
"        . . . . X .             + + + @     @ + + + + + + + + + + + + + + + +   O +                     + @ @ @ @ @ #   : 5 % 3 ",
"      . X . . . X .               +     +   @ + + + + + + + + + + + + + + + + O O +                     + + + @ @   # # : # $ % ",
"      . o o o 6 o .   . X X .       +     + + + + + + + + + + + + + + + + + + +                           + +             # $ % ",
"      . o o 7 7 6 . . o o .         + @   @ + + + + + + + + + + + + + + + + + +                                         # # $ 3 ",
"      X o o 8 o . . . 6 .           + +   @ + + + + + @ @ + + + + + + + + + + O                                         # # # $ ",
"  . . . X o 8 8 o o o o 6           + + + + + + + + + @ + + + + + + + + + + +                                               # $ ",
"        . . o o o o 6 o o 6 .         + + + + +   @     O + + +   + + + + + +                                           #   # % ",
"          . X X X o . . . . . . .     O + + + + O O @   O +         O + + @                                           # # $ $ $ ",
"        . . . X X o 6 .       . .         O +         + + +         + + +                                             # $ $ $ % ",
"      . X o o o 7 7 o .                     O + O       + +       + + O @                                             # # $ $ $ ",
". . . o o 7 8 9 9 8 o X . .                   + + + + + + + O + + + +   @ @                           . .               X 6 # $ ",
". . . . X . X 7 8 8 o . . .                   + + + + + + + + + + + +                               . .                 # # # # ",
". . . . .   . X o o 8 o .                       O + + + + + + + + + + @                                                   # $ # ",
"      . .     . . . 0 7 o .                         + + + + + + + + + + +                                               # # $ $ ",
"                . . o o 0 X . . .                     O + + + + + + + @ @                                             # # # % % ",
"  O O         . . . o o o o o X . .                   O + + + + + +                                               # # # $ q ; ; ",
"            . .   . X o 7 7 o X . .                 O O + + + + + +                                               # $ $ % q ; < ",
"                  . o o o X .         .               O + + + + + +         +                                 #   # $ $ % % > w ",
"                  . X 0 X .             . .   . .     O + O + + + + +                                           # # % % % % > % ",
"                      . .         .     . .     .     O O O O + + + + O                                         # # # # $ % 3 % ",
"                    .       .   . .     . 0 .     .           + + + + + +                                       # # # # $ % % 3 ",
"                            . . . . . X o 0 . .               O + + + + + +                                         # $ $ % % 3 ",
"O                           . .       . 0 X o o .             O + + + + + +                                         # $ % % $ e ",
"                                      . . . o 0 .               O + + + + + +                                       $ $ % > > w ",
"                                      .   . X .                 + + + + + + +   + +                               # # $ 3 > w r ",
"                                        . . .                 O + + + + + + +                               @ @ : $ $ $ 3 > > w ",
"        O +     O                       . X . . .           O + + + + + + + +                     @       @ @ 5 5 5 % > > > > > ",
"        + + O                           . o o .             O O   O + + + O             +       @ @ @ @ @ @ @ : 5 t > w w w w > ",
"        O +                             . X .                       O O   O                   @ @ @ @ @ @ @ @ 5 5 5 > w r w w & ",
"        O +                             . . .   .                 O O                     @   @ @ @ @ @ @ @ @ 5 5 t > w y u w w ",
"        + O                                   . .                 +                     @ @   @ @ @ @ @ @ @ @ : : 5 = i r r u w ",
"    + +                           . .       . .                   + O                     @ @ @ @ @ @ @ @ @ @ @ 5 5 e p * a y r ",
"    + O                         . .           .                                             @ @ @ @ @ @ @ @ 5 5 t 3 > w w u s r ",
"O +                                                     . .                       .         @ @ @ @ @ @ @ @ @ 5 % % & & > > w w ",
"+                                                 . . . o X                   . . .         @ @ @ @ @ @ @ @ @ 5 5 % d d > & w w ",
"                                            . . . . . X X o . .               . 6 o .       @ @   @ @ @ @ @ @ : 5 % > & & w w w ",
"                                            . . .         . o .         O         f .           @ @ @ @ @ @ @ @ 5 % > > > > > w ",
"                  + +         O                             o .     O O O                 @ @ @ @ @ @ @ @ @ @ @ 5 % > > > > w w ",
"@ +         + + + + + + O       O +                         . . .         + O   . . .       @ @ @ @     @ : : : 5 $ % > > > w > ",
"+ + + @   + + + + + + + + + O   + + O                         . o .   O + + +   . . 6 6 .     @ @ @     @ @ 5 5 5 5 5 % % 5 , w ",
"+ + + + + + + + + O O + + + O + + +                             . .     + + +     . f .         @ @ @     @ 5 5 5 5 5 5 % t % 3 ",
"+ + + + + + + + + + O + + + O O + + O   O         O   O O         .     + + + O                     @     $ 5 5 5 : : 5 5 5 5 5 ",
"+ + + + + + + + + + + + + + + + + + O + O             + +               + + + O       @ @ @     $ $   @ $ 6 $ : @ @ @ : : @ : : ",
"+ + + + + + + + + + + + + + + + + O O + + O O       + + +         O     + + + +       @ @ @ @           $ 6 $ : @   @ : @ @ @ @ ",
"+ + + + + + + + + + + + + + + + O + + + + + + + O + + + + O O   + + O   O + +       O + @ + @         $ $ 6 q # @ @ @ @ : @ @ @ ",
"+ + + + + + + + + + + + + + + + + + + + + + + + + + + + + + + + + + + O O + +   + +   @ + + @         $ $ q 6 $   @ @ @ @ @ @ @ ",
"+ + + + + + + + + + + + + + + + + + + + + + + + + + + + + + + + + + + + + + + + + +   + + + +       # # $ 6 6 6 $ @ @   @ @ @ @ ",
"+ + + + + + + + + + + + + + + + + + + + + + + + + + + + + + + + @ + + + + + + + + @ + @ + + @       X 6 6 6 6 6 6         @ @ @ ",
"+ + + + + + + + + + + + + + + + + + + + + + + + + + + + + + + + @ + + + + + + + + @ @ @ + @ @         X 6 6 6 o o o   .     @ @ ",
"+ + + + + + + + + + + + + + + + + + + + + + + + + + + @ + + + + @ + + + + + @ + + @ + + @ @ @             o o 8 8 g 6 6       @ "
};
