/* XPM */
static char *texture[] = {
/* columns rows colors chars-per-pixel */
"64 64 169 2",
"   c #5B241C",
".  c #491412",
"X  c #470A09",
"o  c #581714",
"O  c #681615",
"+  c #772924",
"@  c #753836",
"#  c #7A0E10",
"$  c #882724",
"%  c #570909",
"&  c #380908",
"*  c #871616",
"=  c #850A0B",
"-  c #970A0B",
";  c #770A0A",
":  c #670A0A",
">  c #B8332C",
",  c #A71617",
"<  c #B8443B",
"1  c #971617",
"2  c #B85A52",
"3  c #BD7C73",
"4  c #973832",
"5  c #964840",
"6  c #A73833",
"7  c #A9453B",
"8  c #C87767",
"9  c #C66962",
"0  c #C75C52",
"q  c #A72625",
"w  c #C85649",
"e  c #B94B43",
"r  c #C84A43",
"t  c #CA7B73",
"y  c #B86963",
"u  c #6A2724",
"i  c #771515",
"p  c #972624",
"a  c #C8443A",
"s  c #A95549",
"d  c #B96657",
"f  c #B95548",
"g  c #D86757",
"h  c #D75A52",
"j  c #A7211C",
"k  c #C86657",
"l  c #59110E",
"z  c #47110C",
"x  c #6A231B",
"c  c #492221",
"v  c #661F20",
"b  c #C73934",
"n  c #B72726",
"m  c #881F20",
"Q  c #D77B73",
"W  c #CA8775",
"E  c #D98676",
"R  c #D86A62",
"T  c #5C2D28",
"Y  c #670E10",
"U  c #68110D",
"I  c #B83934",
"P  c #DA9687",
"A  c #D97766",
"S  c #75241C",
"D  c #88514F",
"F  c #890E11",
"G  c #E5A597",
"H  c #E37867",
"J  c #C62826",
"K  c #D88B84",
"L  c #87231D",
"Z  c #8A5656",
"X  c #78110E",
"C  c #940E11",
"V  c #D65749",
"B  c #A16E6B",
"N  c #B71718",
"M  c #A80B0C",
"!  c #A71C22",
"~  c #B7211C",
"^  c #A80E10",
"/  c #D44B43",
"(  c #E68776",
")  c #DC9C93",
"_  c #94231B",
"`  c #A05B5A",
"'  c #A77776",
"[  c #C5191A",
"]  c #B72F31",
"{  c #D4342C",
"}  c #C61D21",
"|  c #B81D22",
"\  c #E59687",
".  c #A9332D",
".. c #965A58",
".X c #A94B42",
".o c #A7100C",
".O c #D5443A",
".+ c #F09683",
".@ c #E25749",
".# c #D32A28",
".$ c #E37771",
".% c #E15B52",
".& c #DB2E30",
".* c #C4211C",
".= c #B50A0D",
".- c #E56C62",
".; c #E36857",
".: c #E58A82",
".> c #D7030D",
"., c #D53A34",
".< c #BB0E12",
".1 c #E39A91",
".2 c #DDA79B",
".3 c #E5030F",
".4 c #C30208",
".5 c #96110F",
".6 c #99332C",
".7 c #F90414",
".8 c #B6150E",
".9 c #D0191B",
".0 c #D11921",
".q c #C30B11",
".w c #C7332C",
".e c #E0493C",
".r c #D0231E",
".t c #F1AAA2",
".y c #F19076",
".u c #E5927C",
".i c #E3725C",
".p c #F08F79",
".a c #E8A18C",
".s c #F2BAA7",
".d c #E7B2A4",
".f c #E4836C",
".g c #DEB0A7",
".h c #E9C5B7",
".j c #E0372F",
".k c #F1A290",
".l c #F0816A",
".z c #C52E33",
".x c #DA715D",
".c c #981E20",
".v c #D8816C",
".b c #E6B09E",
".n c #DA927C",
".m c #DAA18C",
".Q c #D5604E",
".W c #DE503D",
".E c #CB604F",
".R c #78332A",
".T c #CA705E",
".Y c #CD816C",
".U c #B7614E",
".I c #97443A",
".P c #CF9481",
".A c #BE705C",
".S c #89342B",
".D c #873A32",
".F c #8D4438",
".G c #B97163",
".H c #965248",
".J c #8F4A40",
".K c #3E100C",
".L c #49231B",
".Z c #27110D",
".X c #3B1B15",
".C c #6E332C",
/* pixels */
"  . X . . o o O + @ @ @ O # $ O % o % & X X X X % * = - ; ; : ; > , - < = ; > 1 2 3 4 4 5 6 7 8 9 0 q w w 1 = < e 1 r < w r t y ",
"o o X & . . . o u @ @ @ u i p + % X X X X % % : : 1 , ; ; = ; = a , , < - # i i s d q f 7 6 f 8 g g , w h - j k 0 1 r r k e y 2 ",
"l o X z x u o . u @ u c v * 4 $ % X X % % % : : : 1 q % * , = - b n * p * i m * p 2 e Q k 6 9 W E R n g g , n e e q r 0 0 e f 9 ",
"X % X X O + + u o T & & . o o O Y % % O U % : ; = ; : : ; * = - I q ; * * * * = 1 9 k t 9 e k P E Q b A R n n b p 1 I p 0 9 9 E ",
"X % o o O + i S u D @ % l % : : : : : U ; ; : ; = = # : * * = = q - - 1 * F = F q t k 8 k e w A Q G h g H J b r 6 - r n g Q K K ",
"& & o O + p $ L @ Z Z O i X = = i : ; X ; = = - - 1 ; = 1 C = F * - 1 1 1 C 1 C , 0 0 8 k w w k R E h R e n r w r , V b A Q K P ",
"& & l O i 4 $ O @ B Z o * , , n 6 i : ; = - , N M , 1 , 1 1 1 - = - , ! , , ! , , q n e e R Q E V V ~ , - N ^ e 0 N h / ( Q K ) ",
"& & & X % i _ = ` ' u % 1 [ > e 6 Y : ; = M ~ ~ M , , , , 1 - 1 1 - , n , I q , 1 ] n I I k E E h ( { N [ } [ A Q | h / ( \ G P ",
"& & X X % 1 . , s ' ..i i p < 7 .Xi ; = .o~ - = - , N n q 1 - C , M , , , ] , , , I q r w k g a .O.+.@J [ .#J \ E b .$h A .$K P ",
"X X z : C q I n + @ v i # Y 4 w p * p _ 1 N N - = N [ / 6 - N , , N n N N n | n n n q r r w A b / ( .%/ .#.&b P E q H h R .$K P ",
"X X l F , q p * : ; * * * * i n .*.o1 1 - J [ M - n , , , ^ N M M .=N N n n M N n I ] I I A \ V h \ g .-.Ob q P \ J r .;H .:) ) ",
"% X O - ~ i : ; i * * * * * L _ .>.=N J M .,.#[ M n M N , , N M .=N [ .<n n N N | I I I q A G h g \ V H V .Ob .1\ .,.-h ( \ ) .2",
"% : * , > * = ; i i i * * * L _ .3.4j { .o.,.,.,N b N N , , n N [ } [ } J n N N N I n , q I 8 V g ( V ( g .@h \ .1V ( R \ G G G ",
"% ; .5J .6; ; : i i # * * * L _ .7.>.8{ M / .@V J a n n , N | [ [ .9.0} } N N N N J n n n , , h \ \ g w g .%V \ .1h .$g .:\ G .1",
"i : = q : ; ; : i = = * * 1 q _ N .qN { N .@.;.;J / , | , N N .q[ .9} [ } } N N N J J J n J | g ( P < .@V .O/ .:E V H .-( .:( P ",
"* , 1 i = ; ; ; = , , , , , a .w* - J .w, V .;g J n , , M ^ [ .=N N N N [ N n n N b b [ J J n V w A w H / b / K E r H H .:.:.:P ",
"- , n 1 = ; = = = N J .*N ~ V V , M .Or n g / I M ~ - ^ M ^ .<.=[ N .=N .qN n | N r b .<.#.,V H V ( g .-/ / .%K E / H ( \ .:.1G ",
"- N .w.5: = - = - J { { [ J V h n , .;g b H .;.wJ .O^ ^ , ^ N .=J [ .=N .<N N N } V r .,J J H \ H ( .%.-r / .%K Q .,.%A H H E P ",
"N a a > ; N M - M J .,.O[ J V g n N H H .,H .;.w.#.eM , ^ ^ N .=J J .=.=.=[ N J J g / J N / A A A A b R r .O.;.:.$.@H .;( ( \ G ",
", * 1 _ = J N M ~ { .,{ .rb g g N .wH H .,H .;J .#.@, ^ ^ M N .=N ~ N M .=J ~ J J h J } b .wV .-a V V h r / R .t.$H .y( .u\ G G ",
"1 1 , ~ ; j N N .w.,.w.#{ .OV .;N .OH H / H .i{ .r.@, - N ^ N , .=.=N M ^ N ^ [ .wh J [ .,.O.-H r H R .$h .;V \ A .p\ .aG .s.dG ",
"n 1 n .w- M N .*.wb .wJ .#.OV .in b ( H h .f.;{ { .@N , N , ~ M .<.=[ .=[ J [ { b g .OJ .,/ H r V H R E g ( H \ 8 .s.s.s.s.gP \ ",
"n , > .w.oN N N .O.Ob .wJ .OV H .wa ( A g .u.i{ { .eM n N N [ M N N [ .=[ .,.#.,b h V .Ob a w n g A A ( H ( H .sQ K .2.h.d9 K \ ",
"n , > .wM J .*N b V .O.wJ .OV .ib r ( g g .f.i{ .j.,, N N .*J .=J .#.r[ J .e{ .,.w.O.,n n | b / h H ( ( ( ( H G .kn C 2 E ( G .1",
"n 1 n .wM .wJ N .w.O.O.wJ V g H V / ( g V .l.@{ { .,, J [ .#.#.=[ .#.9[ .*.,J V I V .,n .zJ .O.%g H A A H \ H .aE [ .0.@.f\ P \ ",
"n , n .w.=.w.w.*b > .w> .wa g g b / .;, n V .@.,N n , q N .,.OM N J .*M J N n a q > b b / .z/ V g H A .x.i.fH ( V .#.,H .uP P P ",
"1 , n .O.8.,{ J I w / a a V g H n , .ON a > a J j j , , , , , , N N , M .,N ~ n n b .w.Ob J .,.%V H .u.f.fH r g H .,V .uG P P \ ",
"j j 1 .w.=/ b n a H w .Or V g .ib N .@J a V .@N , q , 1 .c, J M ~ , - - , N J b a / .O.;V / .,.;.;H .ug .fH r .-V V H P G .d.2\ ",
".w> N n , n b .OV H g V V w g .;b n .@J a V .@[ N V I 1 1 , h N .*N N M , N b J a V > w .xV _ 0 .;h E .;A .vH \ ( H E P G .bG .a",
"a n ~ .,J J b V V H A V V V V H a .wV .OV V .@[ J V > , 1 1 4 q .,[ .O.*[ J .;b a .iw V a j 1 I a h A h A ( A P E A E .n\ G .bG ",
"a > J a J .w/ V V A g g a V V H / b V / V V V .#.OV J J n 1 1 ; * M J .wN b V > > V A .x.O.,b .Oa w k g .xA .uE .n.v.v.vE P G .m",
"a > J a .wJ a / V A A g V g .xH V b g V g .QV J b V .#.,.,, , , , , .;.,[ n q N n a A ( V .O.O.O.,r < 0 g V A E E E .uA A E \ .u",
"a n J b J J b a g g g V g H A ( V b A g g g .@{ a a .w.OI C 1 1 N I 7 e > F ! n n r .vg .@.,{ .,J a 6 e V .OV A A E .aA A E .uA ",
"a n .wb n n a a w V g g g A A \ A a A g .xg V .Ob .OJ ~ , - , , I p 1 * 1 ! 1 q n w g V .W.,J J J / e w b J r E G G .bk I A ( g ",
"a J .wb > > r a w g g g V V g ( A w E A g g V b n a , n J ^ ~ q $ 1 , 1 ! .c1 ! | a w V .@.O.#J J a r r J J b A P E \ A w .x.fg ",
"a J .wa > ~ w g g A A g r a g A g A .ag V V V .w.w/ ~ ~ .wN q $ * , 1 1 1 1 , n n n a V .@.O.#J J b I a a b > w A A .x.Q.xA A g ",
"I n > a > > g k g A A A w w g .QV h ( g V V V b a V n .w/ .w.c* 1 n q 1 1 1 n 1 F n .,.OV .O{ J n I a r .wn n < g g g V g g g g ",
"I > I e I w A k A A .xg w V V V V V .f.QV V V a a w .wb r .On 1 * q q C 1 1 * F 1 n J J / b { J n n a b J n I b V V V a a g V w ",
"< I I 0 w w k k g w .QV w g V .QV V .fg V w V a a V n a I I q * 1 1 1 1 C , * 1 , , N J b J .,.w> > n J J n b J / g r b V g w w ",
"< I I w < w k k g w w V a k g .QV a .vg V r a .w.wa j p p .c* * 1 .c* 1 , 1 1 , , 1 , N N N .wn I I J J n n n } .OV r / V w w w ",
"< I I w e w k k g w V w w 0 g g g a A k w a a .wb a q 6 p 1 1 C 1 * I I 1 1 , , , , 1 , N N J N n n n N N n n J { J J .wa 0 f f ",
"7 I > k w w w w e w g .E0 k k 8 A w E .xg w k r a r q 6 q 1 F 1 p ; .R+ F * * 1 n 1 - , N , N N n n n n n , n J .#[ N J b w d f ",
"7 . < k k w f f f k .Tk w k E P 8 w \ .vA k k 0 r I q e I n 1 1 p * % % * * * p 1 1 , , , 1 1 , . q n q n n J J .#[ N n I r k f ",
".6p q e f .6. f .nE .n.Yk .YP P E .E.nE .v.Tk < r e 6 < r > < p q * * * 1 1 1 * 1 1 1 1 1 , , , q q q . I q , , { .*, n I < < I ",
"p 7 f d 4 = 6 f .v.nP 8 8 W W .mW f .n.vE k < < w f 7 .6r a n , 6 1 * * F F 1 1 1 , C C , 1 q q I I p q . q q q b ~ , n q I w a ",
"< .Ud d k q 6 d .Td .nW 8 8 W P P < A A k f 0 r e f p .6e M .4n 6 1 F * 1 1 1 1 1 p q n 1 , q n n I I I a r a > a J n I r r V / ",
"f 7 .Is 2 = * 6 2 p .nW 8 W .PP P < k f d 8 A < w f p .67 .o.=> p * * 1 * 1 1 1 p u O 4 q q , q q b > V .Qw a a V .,n n I a V b ",
"4 7 S + f = = ; .Xd E W 8 W 8 W 8 > k .vE 8 .Tw w f L $ 6 , 1 p * * * * F 1 n p O i * F q q 1 1 q j n / a b .O.O.W.OJ , n b b > ",
".6.6U O 7 ; ; ; 1 f .Y8 d .Ad 8 d 6 w 8 8 k .Tw w 2 L i p 1 p p i i i i * p $ i : * p I 6 q , , q q n b > n b .,.O.wn n b b a 7 ",
".S.6S i * ; ; ; ; * 8 d s .Yd d 8 < e A k k k < f e $ p .6* _ . i ; i i * i i ; i .cp 6 p 6 q b a > a b a b .w.w{ J , n .wa < e ",
"+ .S.D.S.6; ; ; ; * 8 .6$ .Yd d k . a w k k 8 e e f 4 L 6 p p $ : * i ; * i ; * * i i p * * i * V V .O.Oa n J J { J N n .,> . 7 ",
"+ .S.D.I.6_ ; = p 7 f p ; .X8 .Tk . > f k f 7 I < f e p L $ p $ : * i * * * * p p p $ p b I 1 1 n { { .Ob J ~ .*{ .*J .wb q 6 7 ",
".R.S.S.S.6_ _ p 7 d s k p _ d d k I a w < I I . 6 f < 6 p $ p i : i ; i i i i * 4 $ * F n .,b a / J .#.w.w.wJ J .#J .,a n 6 4 .S",
".R.S.D.F.S_ _ 4 s s .Sd 6 .6s d f > > q > < f 6 . e 7 6 .6p p i i 1 # : i m * $ + O * * q J .#/ .,.,.O.,.,.,.wN [ J b q 1 * $ $ ",
"+ + + .F.I$ 4 4 4 .XO $ s .Is d .X. j p p .64 * p 4 .Xe 6 .6p $ O i : : i p p $ : : i p > J .w.*J b I n n .w> n n q V > n q 4 5 ",
"O x + .R+ S .S.S.S4 i i .Ss .Gd .Xp q i % S 1 .q* .6.6.XO : i O % i * : i q * i 1 * i 1 > .wJ N J q > > 6 q q .6q p 6 q _ p .D.D",
"o x + .Rx S .S.S+ .I$ i x .Ds .I.Sp . 1 * * N .9_ 4 .S4 i O O % % i * * p a n q .Ob q b .,.OJ .#.,.,.O.@.;/ .OV b 1 * 1 * $ + # ",
"o o o S x i .S$ .S5 .D.I.S.I7 s 4 1 7 n 1 , , .5p 4 + o i O O % O i ; 1 q n J .wJ [ { .#} N N J J J J .#.,{ .#[ .#J q * i i ; - ",
"O o O L S S .S.S.D.H.H5 + 4 .S.I.X1 . n q = ^ ^ ; + O % i : i * 4 i # * = n .,N [ [ [ N N J J J J [ N [ .#{ J N [ J n $ $ p , C ",
"X . o S x o u .R.R@ .D.J.D.D4 .D.D* .6q p * N n 1 ; * 1 1 J .zb I i i 1 = J .#.#[ [ } N N N N J [ J N N J J J N 1 1 i $ $ O p n ",
"X .K.   o o u .Rx .R+ .D.D$ 4 .D$ * .61 p $ * .Si , n , C 1 O * * O * 1 F , 1 j N N [ , N N , N .#} N N [ , , , = * O p i S $ q ",
"z X z . .L.L.LT   S .R.DS .D.H.R.Di $ 1 p + O $ = , 1 q .zi : i % O i * = 1 : % 1 [ } N n * ; N .#.#J N , , [ [ q * O * * i i p ",
"& l o . .Z.Z& & & z O u u @ .R.R+ O L 1 .6.Ri = - 1 X % L Y i i % O % : * 1 i ; 1 [ N 1 i ; ; F , , J J n , J J q o % * 1 i i p ",
"& .K. .XX Y % % % X o u .C.C.C+ u O * 1 + o i - , i X X X O : O X i i i i % : % * N : % : ; ; ; ; : 1 ~ , J J n n O % * 1 m i $ "
};
