/* XPM */
static char *texture[] = {
/* columns rows colors chars-per-pixel */
"64 64 77 2",
"   c #892622",
".  c #A72825",
"X  c #972724",
"o  c #B6312D",
"O  c #B83835",
"+  c #C7413D",
"@  c #A93532",
"#  c #A7312D",
"$  c #99322D",
"%  c #C94843",
"&  c #C73836",
"*  c #B72826",
"=  c #9A3733",
"-  c #98413C",
";  c #863A35",
":  c #7C2522",
">  c #771714",
",  c #691613",
"<  c #8C302C",
"1  c #BB413C",
"2  c #88211D",
"3  c #B94843",
"4  c #D64844",
"5  c #871815",
"6  c #CA514B",
"7  c #D7524C",
"8  c #A9423C",
"9  c #C72826",
"0  c #971816",
"q  c #97211D",
"w  c #A74641",
"e  c #DC5852",
"r  c #D6413D",
"t  c #78211D",
"y  c #D53936",
"u  c #8F423D",
"i  c #E14946",
"p  c #9A4842",
"a  c #C7312D",
"s  c #E1524C",
"d  c #DE6159",
"f  c #E25A54",
"g  c #E2635B",
"h  c #D02F31",
"j  c #E26962",
"k  c #D6312D",
"l  c #CE2F30",
"z  c #E3766B",
"x  c #D42827",
"c  c #6D211C",
"v  c #A61A18",
"b  c #B61C19",
"n  c #E03936",
"m  c #B7201D",
"Q  c #C51D1C",
"W  c #A6211D",
"E  c #D41D1D",
"R  c #C7211E",
"T  c #BC1F20",
"Y  c #D0201F",
"U  c #E1413E",
"I  c #591412",
"P  c #67100E",
"A  c #59100E",
"S  c #570D0B",
"D  c #480B0A",
"F  c #75110E",
"G  c #49100E",
"H  c #85110E",
"J  c #660E0C",
"K  c #4B1211",
"L  c #5D0F10",
"Z  c #760E0D",
"X  c #860F0D",
"C  c #370808",
"V  c #96120E",
"B  c #2A0605",
/* pixels */
"    . . . X X       X . X . . o O O O + O @ + O # @ $ @ $   @ @ % + + & & @ X   . . . * . . . @ @ X X = - = ; : : :       > , , ",
"  X # o . X # # X . & o . . * O O O O & + & + O @ O @ @ @   O O + + & & & .   . o o O O O O @ O O @ X $ = <   : :   X X   > > , ",
"X X . O . . # # X . o O o o o O + 1 + + + 1 1 O @ # % % @   @ O + % O & & . X O & & & & O O @ O @ @ @ @ @ =     2 X X . X > > , ",
". . X # X . O O X # O o . O O & % % + % % 1 1 1 O O + O O @ @ @ @ O O & & O O & O & & & & . O O @ O 1 3 @ . . X X X X . .   > > ",
"o o O # X # & O # @ @ @ O O O O + + + + % O 1 + 1 1 + % @ @ O @ $ O & & & & & 4 % + & + 4 + O O @ O + O O O . . X X X . . X > > ",
"& & & X . O & # @ $ # @ @ O & & O % 1 1 1 1 % % % + % 4 % @ 1 % 1 1 + + & + & % % 4 4 4 4 4 & o O O & & O o . . . X . . . X 5 2 ",
"O o X   O O # @ $ = @ @ O O O O O 1 3 % % 6 % % 1 + % % % @ 3 % 7 % % 4 4 4 & & 4 + 4 4 % 4 % O & & + & & * . * . . . X   X X   ",
"O @ X . O @ @ $ < $ = @ O & & O O 3 8 3 3 3 3 3 O 1 % 4 % 3 % % % % & & % 4 & O & & 4 4 % + % & & & & & & 9 * * X 0 q 5         ",
"& & o O O & O X = @ # $ @ O & O 1 w w w - - - w 3 @ % % 7 e 6 O O % 4 r & & & & & 4 4 % % 6 & O & & & & & * * . . X 2 2 t >     ",
"* . o & & y & . X @ # X . # O & 8 - - = ; ; u - 8 O % 7 7 6 % O O 7 4 i 4 4 y & y 4 % % % % O O 9 & & & * * . . * . q X 2 > > t ",
"o & & & & & & . X $ @ X X @ O O 8 - ; ; ; u p w @ 1 % % 7 % % 4 % + 4 4 r y & & & + O O O 1 O & & & & & & * * a * * . . .       ",
"& & & O o & & O @ @ @ @ O @ @ O @ @ @ = - p w 3 3 % 6 % % % % 4 4 & 4 & & y y & & + O O O O & & & & & & & * * * * * * . 2       ",
"y & y & & & O O O @ @ @ O O O O O @ @ = - = 8 3 3 8 % 6 e % % 4 4 4 s 4 4 4 4 4 4 4 & O & & & & 9 & & & & a * . * . X t : t X X ",
"y y r 4 y & O O O o O O * & & & O # @ = = = O + % % e d f 7 % 7 e f f 4 f f 4 4 4 4 & & + & 9 9 9 y y & & . . X q 5   X X > X X ",
"y r 4 4 r + & O * & & & & y & y O . . @ $ @ & 4 e e e g g 7 4 e g g g 7 f f s 4 s r & & r r y 9 9 h & & O * . X q   X X X 5 2 2 ",
"y y r 4 r & & & & * o y & 9 y y a . . * # O r 4 4 f f f f e g j j g g g g f f f i r r y 4 4 y k 9 * & l 9 9 * X X X X X . . X 5 ",
"y y 4 4 4 4 r 4 4 & * 9 9 y y & & o * * O & r r 4 4 i s f j z z j f 4 4 f f f 4 r y r r 4 4 y 9 o & y 9 9 * . q 0 5 q 0 X 2 > 5 ",
"y r 4 & 4 4 4 % + y 9 9 9 y y & + & & & & y y y y r 4 s g f g j e f e f f f f i y y y 4 4 4 + + 4 4 y 9 9 . . 5 5 5 0 5 5 >   X ",
"& r + @ 4 f e 4 4 & 9 * 9 y y r + 4 4 4 y y & & y y i f g f j g f e e f f 4 i 4 & o . 4 4 r r r 7 7 r y * * . q X q q X 5 t   . ",
"& y y * O 7 e 4 r y 9 9 a y y % % 4 7 % & & y & & 7 f 4 f f e e e 4 4 4 4 i i O   X . r r y y r 4 4 y y 9 * . X X X . X   X X . ",
"4 y y y y 4 % + & a * 9 9 y y 4 4 % 7 4 & y y & & % e 4 7 f s f e 4 r r r y y   t     O y y y y r 4 y y 9 * . X X X . . X X X * ",
"i y y 4 4 r % % & a 9 9 x a & 4 % % % + o & y & & & 7 4 4 f f f s 4 y y y y & @ : c t + s y y y y r y a 9 * X X . . . . X . v v ",
"4 r y i y y + & a 9 9 * 9 9 * & % O + O o & o y y r s 4 7 f s 4 4 y y y y r + & o 2 X y y r y y y y k 9 9 * X 2   # . X X X q 0 ",
"4 4 y y y a & a 9 9 9 v * 9 9 O @ O 1 o . o & r y r s 4 4 4 4 4 y k x k k r y 9 a a a y y y y k k x 9 9 9 * . . X X X X 2 5 5 5 ",
"y y y 9 x 9 9 9 9 9 b v b 9 * . . X = X X O y & & & r + + 4 i n n x x x k k y y y k k y y y k x x 9 9 y 9 * . X X X X X 2 2 5 > ",
"x x x 9 9 9 9 * m b v v m * * . . X X   . & o * a & + O & y y y y x 9 9 k x x x x x k x 9 y x 9 9 x 9 x x 9 * 2   X X 2 5 t > > ",
"9 9 x x x 9 m v b b 0 0 0 0 . . . . O   . a o . * O O O . 9 k k x 9 9 9 x x x x 9 9 x x x x 9 * * 9 * 9 9 * . X X X X X       > ",
"Q Q x 9 Q b v 0 b b 0 0 0 W * * o O # 5 . * . # # # O # . a k 9 9 a 9 E x E Q x x x 9 9 y n 9 * 9 m v v 0 0 . . q t   X   2 > > ",
"x x x R Q b b 0 v v v v v b * * & o q 0 . . 2   X $ # . X * a & 9 x Q E Q Q Q E x x 9 y y 9 9 T 9 m v . q 5 5   2 2 X 2 > > > > ",
"x x Q Q Q R 9 v v b v b v m b a y y a * . . 5 2   X X 2 2 * & k x 9 Q E E Q Q Q x x x y r 6 O . W W W . q 5 2 2   > > > > > , , ",
"E Q Q b Q R Q v v b v v b m v 9 k y a 9 . . . 5 >   X 2   o m R 9 Y E E E Q b b Q x x 9 9 U 4 8 X X q q 5 > 2   X 2 > > , , , , ",
"Q Q Q R Q Q m v b m b v b b v W 9 k * 9 & 9 . 0 5 5 q   X . v * 9 R E E Y Q Q b Q Q R m * 9 9 . X q X 5 2 X       2 > , , I I , ",
"9 9 9 9 9 R Q b m b m 0 5 m 0 0 9 * W k y 9 * 0 W . q X 0 q 0 W m 9 x x 9 9 Q b b Q b b * * * X X X X X   $ $   : > > I , , , , ",
"9 x 9 9 x x R b b R b v 5 W 5 5 q . W * a 9 m v v . X 0 0 * m v W 9 9 9 y k Q b b b Q v b . . X X X X X   X $ = : t , , , > , > ",
"9 9 R x x x v v b Q b m v 0 5 , , X 0 * 9 9 9 0 W 9 v 0 v 9 b v v * m 9 y k Q v b Q Q v v . 0 . X q X X X   $ = t t c t > , , t ",
"x b Q x x Q b v b b v v 0 , > > > 5 > > W 9 m 0 m b v v b Q b m 0 v v v R R b v v b b v . . . W W q q 2     : : t , > t > , > > ",
"Q Q Q Q Q b b b v v 0 5 > P > > > > > , 5 W b 0 0 v v v v v b v 0 0 v b b b 0 v v b 0 q v . 0 v 0 0 5 2       c t , , t t > > > ",
"b b v b b v b v v v v 5 , , > > 5 5 > 5 q W 0 > 5 v 0 5 > 5 0 v 0 v b Q Q m v v v W . W W v v 0 5 5 5 2 t > > , , , , > > , > > ",
"v v v v 0 0 v v 0 0 5 > , t   X 5 5 5 5 0 5 5 > > 0 5 > 5 5 0 v 0 m 9 R R b v b * * v W v v v 0 5 5 5 > > , I , > A I I , > 5 0 ",
"v b v 0 0 0 0 0 5 5 P , , > 5 > > 5 q 0 5 > 5 > 5 0 > > 5 0 0 v v v b R b b b v b m . 0 0 0 5 > > > > , , , , , 5 , A , > > > > ",
"v v v 0 5 > 5 5 5 > > , , > > > 5 X * v 0 > > 5 5 0 5 > 5 5 0 v v 0 v v v b m * v v 0 5 5 > A A P > > , , I I S P P D , , A , , ",
"5 0 v 0 > P > 5 > > , , , P > > 5 X 9 v 0 > > > , > > > > 5 0 v v 0 0 0 0 v . W v 0 5 5 > , I I , > > , , I I I S A S A A A A I ",
"5 0 v 0 5 > 5 5 2 > > > > , > > 5 q b v 0 > 5 5 , > > , > 0 0 0 v 0 0 0 q 0 0 v v 5 > F > > , , , > > I I I I G D S A A , P A I ",
"5 0 v 5 5 0 q q q q 5 5 > 5 q 2 5 0 v v 5 , > > > 5 > , , 0 5 0 0 0 5 0 q q v v v 5 > > > 5 > > > , , , I I I I D , S A A I I , ",
"0 v v 0 0 0 5 0 . 0 0 0 5 5 > 5 5 W v 0 > P P > > > > , , 5 0 5 0 0 0 . . 5 0 v 0 5 > 5 H 5 5 > > , , , I A I D S , S A I I , , ",
"0 0 0 0 W X v b 0 0 b v 5 > > 5 5 5 0 5 P P P > > > 5 > P 5 5 5 5 2 5 q 0 0 0 0 5 5 5 5 5 v 0 5 F > , , I A I , S S S , , > , , ",
"v b 0 0 W X * b 5 5 5 5 5 > > 5 > > 5 > P J P > F > > > P F > > > 5 > 5 5 5 5 5 > > > > F 0 0 > P P , , S D P P S A S > > P , , ",
"b b . 5 q q v 0 5 F J P P > > 5 > > > > J S P F > > P P P J , > > 5 5 > 5 > > 5 > , , , J > > J P , P P , D D S P S D I > P S J ",
"v v q 2 > > 5 5 > P J P J P > > , P > > P S P F > > > > P J , > , , P P > P > > > P , S , P > > 5 P A A P D D D I I K , 5 > S P ",
"b 0 0 5 > > 5 > P P P S S A P A A A > , S J P F 5 5 > F F P J , F P S P P P , , > , S , 5 P P , > , S P P S D D , 2 > > 5 H F S ",
"W W 0 v v 0 5 F P F J P J J P S S S P J P P P P > 5 F F F J J J F F J P S A P , > L S S S S D D I S P , S I D K , 5 > 5 H Z H Z ",
"W v 0 b v b 0 H > 5 5 P > 5 0 F F > J J > P P J > > > P J F P J J F > P , S S P , S S F > D D A A S J P D I I I > q 0 0 0 H 0 X ",
"0 5 0 0 0 0 H F J > 5 F J 5 Z J > F P F F J J , > P J J J J Z J J J J P S S D D J > 5 v 5 A S > , S S S S I I I , , > v 0 v 0 Z ",
"H 5 5 5 F F H 5 S D J 5 F F F J J J Z J P P S S J P S > 5 H v > J F J J P D S 5 0 P 5 b 5 S D P > P D I I I I I , > S > 5 0 0 H ",
"Z 5 F F P J J F S S P J Z 5 H H Z Z H J F F S S S P P P > 0 0 0 > J > 5 v 0 5 v 0 > 5 b b 5 > 5 > , , , > , , I S 5 , C > v v 0 ",
"F F P P J S S J S J F S J F 5 Z Z H Z J J Z P S F F Z F > 0 5 0 5 S > v v v v b v 0 v Q b 0 0 v 0 5 0 > t > > A D S I S > v 0 0 ",
"J P P J S S S J S D P , J S F Z Z 0 Z F J F Z 5 5 5 0 5 0 v F > 5 , S 0 v v v b b v b b b v 0 5 5 0 v 5 , D , > , I D I , > 0 0 ",
"J F J S P S D S D D A D S S S F V V 0 0 5 > F 0 v 0 0 5 0 5 , 5 0 5 5 F v v v 0 0 v b b b v 0 5 5 , , 0 5 , > > 5 > D D > 5 0 0 ",
"S S S S D > P S D D C C D D D J X V 0 0 5 > > 0 v 0 0 > > > 5 > F 5 v 0 v v v 0 0 v b v v 0 0 0 5 S P 0 2 >   2 > 5 > 2 X 5 5 0 ",
"D D D D C D D S D D C C D D D J 5 v 0 0 5 5 , 5 5 , 5 5 5 5 5 F 5 0 v v v 0 v v 0 v v v v v v 0 > > 0 , I D , X , 2 5 X q 5 , > ",
"D D D C C C C D D C C C C C D J 0 5 5 5 0 5 > > > 5 0 0 0 5 5 5 5 0 v v 0 0 0 0 0 v v v 0 0 5 , > 0 0 , C C I X A t > 5 5 5 > , ",
"S D D C C C D D D C C C C C C I , I I , > > 0 > J 5 5 0 0 v 0 0 0 v v 0 0 5 5 0 0 0 0 0 0 5 5 5 5 5 > > I C : > C I > > > , S > ",
"S S D D C B D D D D C C D I K I 2 2 , , > > 5 5 > 5 > 5 0 0 . . . . v 0 0 5 5 0 0 5 5 5 5 5 0 0 5 5 > > A G , , C I > > , I C > ",
"J S D D D C D D C C D C C , I , 5 5 F 5 5 , J > 5 > F > 5 0 . . . . W v 0 5 5 5 0 5 5 5 5 5 > 5 5 > > , , I D G C I , , , , , P "
};
