/* XPM */
static char *texture[] = {
/* columns rows colors chars-per-pixel */
"64 64 75 2",
"   c #66161B",
".  c #772529",
"X  c #86272B",
"o  c #973537",
"O  c #A63739",
"+  c #962D31",
"@  c #A63D41",
"#  c #873537",
"$  c #A74645",
"%  c #B64746",
"&  c #C55954",
"*  c #D2635C",
"=  c #CD615A",
"-  c #B6514C",
";  c #B85551",
":  c #A7403E",
">  c #984745",
",  c #B2413E",
"<  c #85423D",
"1  c #97413D",
"2  c #793636",
"3  c #671C22",
"4  c #872C31",
"5  c #94282D",
"6  c #C3514E",
"7  c #A9514C",
"8  c #682528",
"9  c #761B23",
"0  c #861C24",
"q  c #894443",
"w  c #7A413D",
"e  c #75171B",
"r  c #A32A2D",
"t  c #A32D33",
"y  c #B2383B",
"u  c #C14949",
"i  c #57151A",
"p  c #3D241F",
"a  c #A55150",
"s  c #85302E",
"d  c #470D12",
"f  c #792C31",
"g  c #6A3432",
"h  c #7C4341",
"j  c #491417",
"k  c #6F403B",
"l  c #6B2D30",
"z  c #B23D42",
"x  c #591C21",
"c  c #5A2526",
"v  c #77302E",
"b  c #66312E",
"n  c #5C302E",
"m  c #7F3E40",
"Q  c #993D41",
"W  c #3A1213",
"E  c #873C40",
"R  c #3A0A0B",
"T  c #3A0E11",
"Y  c #4D1A20",
"U  c #4E2325",
"I  c #560D14",
"P  c #450B0D",
"A  c #931D26",
"S  c #82181C",
"D  c #750D13",
"F  c #660E13",
"G  c #73090F",
"H  c #800D14",
"J  c #66090F",
"K  c #570A0E",
"L  c #78211F",
"Z  c #6B201E",
"X  c #56100F",
"C  c #87201D",
/* pixels */
"  . X o O + o o O @ O O o o o o + # o $ % % & * = & - ; & - $ $ O o o : > > > > $ > $ $ > $ & & - % , $ % % & $ $ - $ < 1 o 2 # ",
"  3 . + + X X o O O o O o o + 4 5 # o $ % % & & - & % % $ o o o o o O o > > > > > > > > $ $ & & $ $ % & & & & $ $ - $ 1 1 o # . ",
"    X 5 5 X X 5 O O o O + + + o o o : $ % @ % 6 6 & % $ $ o o O o o o > $ $ $ > > > > > > > 7 $ > $ & & * & & - ; - ; 7 1 o # 8 ",
"9   0 X 5 X X 5 5 5 O O O O o o O : O % % % % 6 % 6 $ $ O o o o # o o $ $ - $ > $ $ ; > q q w > > > $ ; & ; - $ - ; ; - $ # # . ",
"e e 0 5 5 X X r r t y y O O O o O O o O % y % u % % O o O o o o O O @ $ 7 ; $ $ > > > q > > > > > $ 7 ; ; ; % $ 7 7 7 > : # . . ",
"i i   9 0 9 9 5 5 5 O y y O O o O O o O O O $ u % $ O o o 4 4 # o o o o > > 7 2 p w q q > > a a > > a ; 7 - $ > $ 7 7 > 1 o s . ",
"d d i         . 5 5 + o o o o O y O o o O O : u % $ o o # 4 f # # 2 # # q q > w g h h q q h q q q q > $ 7 - $ q > > 7 $ $ # . 8 ",
"i j i   9 9 . X X 5 + o + + O O O O o o O o o o O O o o 4 f f # < g 2 < q > > q q < w w 2 < q < q > > > > $ $ > > > > > o 2 . . ",
"  i i 9 X X X X + 5 O O o o O O , O O o o O O O $ % O # 4 # 2 # q < < < > q q q w < w k # # # 2 q q < > $ > q > > > > > # # # # ",
"i i i 9 9 9 3 3 X X X # # # o O O # # f # o O o $ @ O o # # 8 2 2 g q 7 > q q < < w w 2 2 # q q q w 2 # q q h q q q > > o # # # ",
"  i i 9 . . . 9 . . X s # o O % O # # f o o O O % % % % # # l 2 2 2 2 q > q q < q w 2 # < 2 q q 2 g 2 # q 2 q q q 2 q > 1 # # # ",
"  i i 3 9 9 3 3 8 8 . # # o O % : o X . 2 o O o O @ % z o # 8 2 2 2 2 w # # q q > q < < < q q < 2 g g 2 2 # q 2 2 2 2 # > o o $ ",
"j j i 3 8 x x x x c 8 . # # o O # o 4 8 8 o o X o o # o o # g g 2 2 # # 1 q < 2 2 2 2 2 # 2 2 # # g 2 2 # # # # 2 2 2 q o % $ $ ",
"i i i 3 8 l 8 c c c c . f v # # # 4 # 8 8 . X . X X 4 o o 2 # # 2 2 # o > $ o 2 g g g g 2 2 2 # 2 b 2 2 # # # o # # 2 q o o # # ",
"3 8 3 8 f . l 8 8 8 8 f . f # 8 . # # . 8 . X . X 4 f # # # # o o 2 # $ $ $ # 2 g n b n g g b 2 2 2 2 2 # o > > m # # 1 o # X o ",
". . 8 . # f 8 8 . 8 8 c c 2 v c 8 . f 8 c 8 5 . X + 4 4 o o o o Q o @ $ $ $ # 2 b c b n b b c 8 2 # 2 # # o 1 $ > > > $ o o X o ",
". . f # # 4 . . . 8 8 8 c . . c . . . . c . 5 X . X . . 4 # # # o o @ $ $ $ 1 # 8 c c c b g b g 2 2 # o o o # > # > o $ $ O o o ",
"4 # 2 # # . . . 4 . f f f # . c . 4 o X 8 8 5 X . X 8 8 4 o # # o # o O $ $ # # v c c c v 2 b v 2 2 # # # # q > q # 2 o o o + + ",
"4 4 # f . . . . . . f 4 f # X . + O O o 8 . O O 5 t X + O O o O o o O o @ : o o o c W 8 8 8 8 8 c 8 2 # # E > > # 2 # o o + X X ",
"# o o 4 . f . 4 # # # # 4 X o o O O O O . . O O O O X 5 y O o O O y O O O O O o X 8 j x x 3 x c c 8 2 # E # > > o # # o o X . . ",
". # o # f f . f f 4 o o X . 4 o O O O O . . o O O O o 4 y O o o o o o o + 4 X X i R i           i c 2 # # o o $ o o X # o X . . ",
". 4 # # f 2 . . 4 4 # O 4 . X o O O O O X . o O O O o + O O o O + + o o o 4 . . i d 3   i i i i i c 8 f # o o $ O O . . X + X X ",
"4 # # # 2 2 2 l 4 # # O o o + O O O O O o . o o O O o X O O o O + + O O o X . . 9 9 X 9 i i i i i 8 . X o o o % O O o . X o + 4 ",
"# # o # 2 # 2 f # # 4 O t O 5 o O o O O O o > $ O O O 5 5 5 o 5 5 + + 5 5 X 8 8 8 . . 9   i j j x . 4 o o O O $ o o o o y O O o ",
"o Q o o # 2 g 2 # # X o + + X 4 + + o o o o o o o 5 + 5 + X + + X X X . . . . . 8 8 8 x   i c 8 8 . f o o o o $ o o o o $ % : O ",
"# > # 2 # # 2 # # # . o + O X X X X 4 o o o # 4 o o + + + X + + X X . . 8 . . j i . 8 x i 3 8 8 8 8 . o O O o $ % $ $ @ $ $ % % ",
"# # # # 2 # 2 # # # f # + O . . X 5 X + o o o O O O + + + + + + X X X X . . 8 j   . 8 c x c x c x x 8 4 o o o o $ & ; $ $ % % % ",
"# Q # # # # 2 # # # f 4 + O X . X o + X 5 5 + O O O O O O o o O 4 o + X . . . . X . c 8 c x x j j x i 3 . # # o $ % & & - % % % ",
"@ @ $ $ E # 2 2 # 4 f 4 4 + X X X # o X 5 + 4 t o O O O O O O z o o 4 X . . 8 . X . . 8 8 c j T W j i 3 3 . 4 O $ 6 6 % - 6 $ z ",
"o o @ E # E 2 2 2 # 4 + + + + 4 4 4 + + + O o z O O O O O + O @ O o # # 4 . . . X o # f . x T W j     9 9 X 4 # o % $ o O O , o ",
"o o @ Q Q E 2 # 2 4 f 4 + o O o O o t t O O o O z y O y O o O @ @ o o o 4 4 . X + o # f 8 x i 9 3 3 3 3 3 . X # o O y O O O O O ",
"o o @ o Q Q # # # # 4 o o o o o 4 X 5 t O y O z % O O O + + O @ o o o o 4 f . 4 + 4 # . . . X . 9 3 3 3 3 . X X O O O O O O O O ",
"# # $ $ Q Q o o # 4 . . # + + + X X 9 X 5 5 5 O z u z y + + O z @ @ o o o 4 # 4 O + 4 f . . 3 3 x 3 9 3 3 . X X + o O O O y O o ",
"# o $ $ @ Q # # f 4 f . 4 X X 9 9 9 9 X X X X X X + O y y y % % $ @ @ o o # # o @ o 4 4 X X . . 9 3   i 3 . . . . 4 O O O O + o ",
"8 8 # > # # 2 # 8 f # f 4 . 9 3 3 3 9 0 0 0 0 X 5 5 X 5 O % % % % - % $ Q o $ Q $ o o 4 X 4 + X 3 3 i j j 3 . . . 4 o O o + 4 # ",
"8 8 2 o # 2 2 # 8 8 # 4 .       i     9 9 9 9 5 t t 5 t O % % % % % % ; $ > > Q $ @ o 4 4 f X X 3 3 i j j x x 8 X . X X o o 4 # ",
"8 8 . # # 2 2 2 f 8 2 4 9 9 i   i i   e   9 9 X t t 5 O O % % % % - ; % $ $ > $ $ @ # 4 4 4 4 X . 3 9 i i Y x c 8 8 X . . # 2 f ",
"3 c 8 2 # 2 g 8 8 U 8 . 3 i d I I i I i   9 9 5 O + + O o % % % % - - % $ > > Q @ o f 4 X 4 + X 8 . 3 3 3 Y x x x x 8 8 8 . . . ",
"i i 8 . . 2 8 8 c c 8 i i d d P d P I i   9 9 X 5 5 X + O % % % - - - ; $ $ > Q o # f 4 4 4 X + X X 3 . 9 x j x j i 3 8 3 8 8 x ",
"i i . . f # 8 8 8 c x j j j j i i d i i   9 9 5 5 5 5 o O % % - - ; ; % $ $ Q o # . . X X o O o X 9 3 . 3 x j j j i 3 3 3 3 i i ",
"i i . # 2 8 c 8 8 x i j j j d i i i   i   9 0 0 5 5 t + O O - & $ % % $ o Q o o # f . X X + + X X 3 3 9 x 3 i j j j   3 3 . i 3 ",
"d 3 . f . 8 c 8 i x j j i j d d d I i i   9 9 9 0 0 5 5 O % - % O o o O o o $ $ $ # X X X + + X . 3 i 3 3 i j i j j   3 3 . 3 3 ",
"j 8 f f 8 c j i j i i i i i j i i i i i   3 9 0 0 0 5 5 O O $ % O o o o 4 # o o o 4 # o + O t t X 9     3 i j i i i 9 . 3 . 8 3 ",
"i f f 2 8 x j j i i 3 3 i i i 3   I   i     9 0 A 0 A t O O O O o + + 4 X o o X # o o O O O O + 5 5 9 e   i i i i 3 3 3 . X . 3 ",
"8 # 2 f c U j i i i 3 . 3 x x i d R I I I     9 0 0 5 5 O + o O + + + + X o o o $ , O O O y O 5 X 0 e   i i j d i 3 9 3 . . 3 x ",
"f Q 2 8 c c j j j i 3 9     i i I I         9 9 0 X 5 5 + 5 X + X 4 4 o 4 # o O % z O O O 5 t t 0 9   i i j j d i   9 3 3 . x i ",
"8 2 . 2 8 c x j i 3 9 9 9 3 i   I e 9 9   3 9 0 5 5 0 X X 0 X X . # o o o O O z % z O O + X X 9 0 d R x x i i j i j i j i 3 i j ",
"c 8 . c Y j j T j   3 3 9 9     i 9 9     3 9 . 4 X 9 9 9 0 X X 3 f o O O z % % $ O O t 5 5 . X 0   i i x j i 3   i i j i i j j ",
"x 8 8 Y j j j j i     9 9 S   i   9 9   i 8 . 8 f 4 . . X X . . . . # o @ O O O O O + 5 X . 9 9 X . . 3 i i 3 . X 3 x i i i j j ",
"j 3 i i 3 i i j 3 3 3 e e e e e e X 9 e i . . 8 8 . 3 8 . . 8 . 3 . o # o o X O O + 5 5 X X X 9 4 9 X     3 8 . X 3 x j i i i i ",
"j .   i i d d j i   3 9 e e e e e X X 9 . # f 4 . . . 8 x . 9 . 3 . o o $ o + o + X X X . X X 4 . 3 .     3 3 . . 8 3 3 x x 3 3 ",
"8 X i d d T d I 3 9   9 e e D F e S e X 5 o # X X X . 8   3   9 3 9 o o $ o 4 X 5 X . 9 9 4 . 4 X 9 9   i i   3 3 x 3 8 3 3 3 3 ",
"3 9   I d d I   9 9 0 0 0 e e D G D   X X 5 X . X X . .       e 9 . o O $ o 4 . . . 3 3   X . 4 9               3 x x x i i x 3 ",
"i 3   I I d I   9 9 0 X 5 0 S H F e e   X S 0 S e e       e       e o O $ o 4 . . . . 8 . e . . 3       i i x 3 3 3 x j i 3 i i ",
"i     I F I I e 0 X 0 X 5 0 S D F e S e e e e e e e   e e   e   e 9 o O o # 4 . . 8 X . f 8 3 3       i i i i i i 3 x j i i i j ",
"i     F   I   e e e e e A S S D J     e e e e e S e   9     e e e X X # o X . 8 x c 8 . 8 8 . 3     3   i i j i   i i i j j j j ",
"i 9   I I I   e         F I     K   i F e     0 0 e e 9 i   L X .   . o o X . . c 8 c 8 x 8 . x 3 3 .   x i i j j i i i i i j j ",
"i     I I F I i   i i I I I F F I F F F     e 9 e e . 3 i 8 . . X   . s o . . 8 8 8 8 c x 8 8 3 9 3 . 3 3 3 i i i x i j i i i j ",
"i     i i i I i         I P F F K F F F e S   e 3 9 8 3 i Z . . .   X X # . 8 8 8 8   3 x 8 8 x 3 3 8 x x x j j j i i j j i j j ",
"d   i i i i i i j i i   I     e K F I I   e     3 9 3 . 8 Z X 9   . o . X . c x 8 i i x x x 3 3 3 x 8 x x i j j j j j j j j j j ",
"i . Z i i     i T i i   I F e   I I I i i i i i   3 i       .     L 5 . . 3 x c   j j i i i i i x 3 x x Y i j j j j j j W j j W ",
"i . X     e X i j i   i P P i P P P I   e   i i i j j     j   X X   X e . x   i i j j i j i j i x i i j i 3 i j j j j j j j R R ",
"j Z   i i     i i j j d d I i P P R P j   e i j W j d   i i   K     e     i i i j j i i i i j i i j j i i i i j j j j j j d R d ",
"j   i j i   i j i j j i d d P R P R P j j i i j d d d   i i   R   C e i   I d i i j d j j i i i i j i i j T d d T j T d i d d d "
};
