/* XPM */
static char *texture[] = {
/* columns rows colors chars-per-pixel */
"64 64 129 2",
"   c #780B0B",
".  c #560B0B",
"X  c #670A0A",
"o  c #871717",
"O  c #860B0C",
"+  c #771818",
"@  c #A51717",
"#  c #961717",
"$  c #B61919",
"%  c #571717",
"&  c #671818",
"*  c #C61718",
"=  c #090504",
"-  c #180908",
";  c #270A0A",
":  c #C82525",
">  c #B7322C",
",  c #C53834",
"<  c #C8433C",
"1  c #A63936",
"2  c #B62726",
"3  c #A82828",
"4  c #D73735",
"5  c #B53936",
"6  c #BB524B",
"7  c #CA5952",
"8  c #A74842",
"9  c #A7423C",
"0  c #A61E20",
"q  c #E42324",
"w  c #D41A1B",
"e  c #970B0C",
"r  c #880E10",
"t  c #872626",
"y  c #772726",
"u  c #90100F",
"i  c #471616",
"p  c #981E20",
"a  c #B91E20",
"s  c #962626",
"d  c #B74943",
"f  c #B85751",
"g  c #C8524B",
"h  c #883633",
"j  c #D72525",
"k  c #A70B0C",
"l  c #470B0B",
"z  c #371515",
"x  c #370A0A",
"c  c #D6453E",
"v  c #B9443D",
"b  c #AD504A",
"n  c #983734",
"m  c #580E10",
"Q  c #672625",
"W  c #572624",
"E  c #58201E",
"R  c #47201E",
"T  c #492523",
"Y  c #86312D",
"U  c #D74943",
"I  c #C74A43",
"P  c #79312D",
"A  c #D61F20",
"S  c #69302D",
"D  c #97322E",
"F  c #D4544A",
"G  c #9B413C",
"H  c #793533",
"J  c #B40C0D",
"K  c #750E10",
"L  c #A7322D",
"Z  c #D3211F",
"X  c #78100F",
"C  c #A0100F",
"V  c #84110F",
"B  c #55100F",
"N  c #89201E",
"M  c #6C100F",
"!  c #960E10",
"~  c #79201E",
"^  c #E15348",
"/  c #6A3532",
"(  c #E61C1C",
")  c #C7312D",
"_  c #3A2521",
"`  c #93201E",
"'  c #E8201E",
"[  c #38211E",
"]  c #64201E",
"{  c #281513",
"}  c #771E20",
"|  c #AA0F11",
"\  c #26100E",
".  c #D7302D",
".. c #1B100E",
".X c #C10E0F",
".o c #1C1311",
".O c #2D211D",
".+ c #F14C43",
".@ c #48100E",
".# c #9A4843",
".$ c #7B443F",
".% c #583B34",
".& c #4E3630",
".* c #48312B",
".= c #CC1F20",
".- c #861E20",
".; c #5A322D",
".: c #280F10",
".> c #480E10",
"., c #6A0E10",
".< c #6E4940",
".1 c #A5665C",
".2 c #E2413C",
".3 c #7C4F47",
".4 c #997365",
".5 c #B17569",
".6 c #C4756B",
".7 c #B6615A",
".8 c #9B504B",
".9 c #8D4F49",
".0 c #380F10",
".q c #952E30",
".w c #561F20",
".e c #1F0E10",
".r c #862F30",
".t c #33100F",
".y c #631E20",
/* pixels */
"  . . X   o O X O X + O   @ # $ + % & @ * * @ @ + = - ; + # @ o # + @ : > , < 1 , 2 3 4 5 6 7 6 6 8 9 , 2 0 : : 4 q * * w @ o # ",
"e e     X       X   + X . # e r & t y o @ # u $ % = ; & i % @ p a # # s , < < 9 5 2 s , d 7 f f g d h 5 2 # 2 j , j w w w w * * ",
"e k e e   X X   l . l l .   e l % 3 z l x l X @ l = % + % x % & i + & % , , c 1 v 5 3 5 d 7 8 b g n h 1 t & @ @ # q j $ * * w * ",
"O O O X X l l O X ; ; l X O k X m l % % & &   # o i Q Q W - z & E R T T s < c Y d U 1 1 I 8 h n g 8 P h s t 3 2 0 : a @ A * w * ",
"    e   O O l . O ; x . X e   . X . & o o # # o # $ Q S Q W W + t W W T W D 1 P v c s 5 F 7 6 d G 8 H h n 3 3 # 0 2 $ $ A * w * ",
"  O O   e O l x X x l     J O X .   + * o K @ o + o t Q y W W s % i W T W n v n h 1 n L v h 8 6 n d h Q y n 2 # 3 2 & $ q Z j * ",
"  X X l   X l ; ; l . . X k C O   o # * @ V $ o o # 3 E W W Q & i i W W Q t y 5 y 8 I 1 I G d 8 d d 9 h n h 5 s o o o * * j a @ ",
"  X O e e O B l l x . . +     O   o o # * * Z # N s # % W i W R i W Q T % 2 L s t 5 < < d g I d I v 1 1 n Q t t o @ $ w j j * * ",
"X   O e k o o M X l X X X X X X     X o @ o $ # + # # Q W W W Q T W W % E s 3 3 y 5 , c < F I I U I n h n t y & + 3 3 : q w w $ ",
". X     ! # & X O . .   .   X X     X r @ o # + o # ~ i T Q W W W Q W W T % o s t 1 y Y U ^ U 1 < c 5 Q t t t E % s 3 2 j * * * ",
"X X   # $ # O O k O x     X . X + O # @ * @ # # # + & T W i W W S H / W T i + t y s y D 1 < < 5 U , 5 t y W Q t s t 3 2 w ( w w ",
"X   + # # e k k k   X X e   X   O o # @ q @ # # @ & + T T T H / W P / S T W y Q % o ~ 3 3 5 < < c ) s 3 y t Q D & t : 2 : ( ( w ",
"    + % X k O e J   X . O   X X . l X @ 2 # # + + + & _ _ T W Q i % t Q Q y % i % o + + ` s > c ) 3 o s t t % y % t 2 2 * ' ( q ",
"X .     O k X   J r e   l X   . .   o @ @ $ # & % o % [ T _ T i i z % ] y y i % % + s & + + + s 3 # & o & & & s Q + # 3 : j j @ ",
"% & X     e k e k   O X X X X ! ! r @ 0 # $ # % % % % _ T T W W W T R W W % % i z + + + o & & z + 0 + & % z y % i y 3 2 3 2 N & ",
"% ; l X X e e e O X   l X   e e   + o @ # ` t % i E i z _ [ T % z W W W T z { z i % & i % % o % % p p + + Q W % + & s , s 3 t 3 ",
"x l X X X X   e   O k X   k k @ ! o + @ # o & ] % i i { { W W W T S S W & i i i i % + & i % s o z } t y y y Q s s N j j 2 n & 3 ",
"- X O e   O e k O O k O O | w & ;   # # # + i % % & % { { z W W W / S Q % i i % i + % z - i % o z ; ; \ i % % s t 3 . 4 y y t t ",
"l   X e O e e e     k e r l # l = X @ @ @ + % + + + z { { ..{ z Q / y % % i z z x z - - { i & & { - ; ; ; i % D 5 n 1 i & 4 ~ i ",
"O e   O k k e e   ! .X* X = = ; \ + $ $ @ + + & + & .o{ .o{ z { { { z z z ; z i - - ..{ i i i ; - ; ; - \ z i 5 L % \ i , > i t ",
"O ! k k k J k k O e J * ; = { { z l @ o + + + & & i { { .o{ { .O{ - - ; z { - ; ; \ { z Q Q i ; ; ; ; i % % W 5 .+5 z y , Y ] U ",
"z i X O e k k k O e J @ - z R z i & o o o + o o + % { { { { { [ { z { { = \ Q E ; z z Q y Q z - z \ z % Q Q Q t h 1 i t n i n U ",
"i % % i .@K * J ! @ * # z H / T W t @ # o + o + % i { { { ; { { z i { z { E 1 Y ; ; z Q & i ; ; z ; i y y Q Q Q z i E Q { y < v ",
"  & & & % ; . K # @ $ + W .#.$H / t @ + & & & & & i z % z R z ..W / .%.&.*y n y - z i i % i z i z ; & s s Y Q R z 1 y z Q y v < ",
"  ! r + % i . $ @ $ .=; y 1 H h h s o + & + & & % % i & + { ..{ T W T .*T Q n Q { z { \ { z W i z z & Q y n P W v v z Y Q Q .#g ",
"X X O ! # # @ * @ + - ; } .-} ] y 2 # & i & & % % % % % % { _ { { T .;T { Q Y Q W - { z z { z i z % y y y Q P W 9 9 z t Q n h h ",
"; X   O # @ $ w o = - & % & } y & + i = - % & & % & % l & & z { [ T W z i n y y D { { z { .oz i z & y y S S H T G z Q 5 Y d I I ",
"; ; X O ! e # + - - % & & } } } y % ; = i & % & & & & % & + % z { { E { { z z y y { { [ .oR i z z & y y S S / W T i h n 9 g g I ",
"z - . K   # l = ; i i x & x ; l & & + i z i i % % & % .@% l % - .oz z - - = = i z .o{ { ..i z { i & % y S W W 9 i Q h Q 1 v F F ",
"x X . - - .:= x i i % i .>- - ; i o ` ~ z i i i % % % .@% i i ; T W { ..= - - i i - { - { z i z % & % y P W W h 8 6 G 6 9 9 h h ",
"  K - - { z % o .>i .>% x = - = - l + s % % & % x % % .@B l i ; z z - { - { .o{ { { { .oz W & % Q % Q y h S H y Q G 8 8 I < U 5 ",
"  - ; & & o + x - - ; .>- - - = = - x i % & + l . . . x l % x = = z R [ _ _ .O{ .O_ { [ .;h y y t y Q h h / S W Q H n 1 < c t D ",
"X - % } % .,l = = = = = = = = - = = i i % t % &   . l l . & x = { { i [ T .*_ [ T T { z .<.1H Q y H H H H H / H 8 H t U .25 y 5 ",
"x ; } & m l ; = - - - ; x - - - ; ; % t s t + % + X m ; + m = z i z { { [ _ { { z .*.%.3.4.5.#.#H Q Q W Q Q h d 1 t y 3 ) 4 .2.2",
"- z % .>; - = - - - - ; ; ; ; - { i i Q o .-& % x . .@i # x = W z z i i { _ { z T T .%.1.6.7h f .#.#S H H H h 5 n t y & 2 . ) ) ",
"- i i i z - - - - ; ; - - ; ; ; z z z z % o } % W % i & o # x T z { .._ [ W W Q W W { y s & + 5 6 f .8.1.9.76 5 1 h D y + : ) ) ",
"i i i i z ; - - - i z = - - - - - .o{ .0% & + % Q Q W z x @ % i R T z Q W Q y W y n Q } & + 3 s & y f .6.6.$Q I d 8 d n 5 , ) ) ",
"i i % z - - = - .0i ; - - = - - ..- .0% % & } } Q W W W z x - T T .;W W W Q % { t 3 t } & + .-% & Q n d g t Q 6 g g < , 2 2 ) 2 ",
"i i i z - - = ; x ; - ; ; - - .o{ z % & % % & & y Q i W T = z .;T .;T W h s i { ; % & z i i i & y z W n , n 7 v 2 # $ # # @ 3 + ",
"i z % z ; - - - - - - ; z z { { z i z z i i % & } y z i = { W W W Q y h .qQ Q R z % i z % .wQ Q i W T t I n 5 3 @ # + @ @ @ o o ",
"% i % & z \ - - - - - { z % i z % % { ; z % & & & & z .e- T W T W t y .ry Q H S Q y y y y W R i { T Q 1 1 y t s o & i m # # o ` ",
"i z % & % z ; ; ; z z { - i % % & % z & o + & % & & i i T T T W W y h h Q y h h h W .qt W W z i T z Q 5 3 t s + x = - i + + o N ",
"% i .t; ; z % z z % z z % i % i - i i & X X # o & + & W W W i y y y y H / h H S H Q y y Q z z i Q W t 3 s .-& l ; - % # o # o + ",
"% i .ti ; z & i & & i i Q & & z = - z % X X X o + + .,i .w+ % & % Q y h n 8 n n n Q Q % z z i W S W t } + o + i x % % + + + + + ",
"i i i i .>i + % .y.y+ % z % % % i z i o r l . . . l l i & & & + % W y y y t t s t & % z z z P n n y } + + & % .ti % i + o o & y ",
"x x x x x .>& + y t # + z i i % z i z l l l l x x i z z i . X o i z t y t 3 s t + i z z z T 1 5 1 y i % % & & % & i % # o + % i ",
"; ; ; ; x l & % + o + + & & % z z { { x l & . l i i i \ x l . K + ; % & s t 5 5 t i % Q Q Q t s 3 .-z { i & & i % z i + & y Q % ",
"; - ; ; x ; .tz i .,r O O X . z z z { . X . . . i i i ; x x . O K - ; % + & m & + & i Q 1 3 t s + + z z % % ; ; i i ; { s t + & ",
"- - ; ; ; x z z x l X   X . X X % i z & . . l i x z x x l l l X l = - - l & % l % & .wQ } .-+ + & + & & .>; z x .0; { { & & & & ",
"- - - ; \ { \ ; x . X   O     e + i % . l l x i z x x x x x . # ; - ; ; ; x x ; i % i % ; % % .>x l ; = ; .0- ; ; ; { - % + & % ",
"; - ; z { \ ; x l l .     O O X ; z . l l i i i x x x l l x X & - .tz i % & % i i ; x ; - - ; x ; ; ; x ; x x ; ; z { = x o & & ",
"- - - { z l x l X   X X   O     . l x . l i % l x l l l l . X K + i % o + + s y y i ; - ; = ; i x x .>l .>% .>; { { { - = i & % ",
"x .>z x x ; ; l . X e O   O     X . x % % % & B B l . l . . X X o & & + .-s t s + z i % i i i & + & % i % .>l z z z { { - = .@i ",
"i z z x x ; ; l . X   e !   e X . . l l % % X . % . B l . . . . + % & + + & % + + z % & i i i l % .>l l l x z i T z z z z = = x ",
"i i x x l ; ; x . X X . X O O   X X % % % . & & & % m % l . . .,+ ; & + } } & & i z i i i i i i x ; x x x { z T Q i T R z { - = ",
"z i x x x ; ; l l l x . . X   X   X & % l . . % . l l % i .@% + l ; + y & + & % z z i i i i i i z ; ; x i Q T T & % % % { ..z - ",
"; x x x x ; x l x . . l X   X   X X . . l l . . l x l % i i % & i % i Q & & & & ] z z ; { z { ; - ; z i W W T % i i & i \ { - ..",
"; x ; - - - l . l l X l X O   X . . l l . l l l l x l .@i % % % i Q W & & & & % Q z % i z z ; - { { z i % % i z % i % i - .o{ ..",
"; ; - - - - ; l l l x x l X   X X X . . . l l l x ; x i .@i .@& y Q % % z % % i i { z .wz z z z i % % i Q y W i i i { ; - .o{ .o",
"; ; - ; - - x x l . x x l . X . x . . . l l l l ; x x ; x x l % % % x ; ; i % i i z % i { { z [ T R T W W Q E % i z { ..{ { { .o",
"; - ; x ; x x x x x l . . X . l x x x l l x l ; ; ; x x x x m x i l - i i i i i i x & i z T W W W z i W W i z z z z { .o{ { { { ",
"; ; - ; l . x x l x l . . X l l .@x ; x x x ; - ; x l x l x = x . - ; i z % % & % z i { T W W W W [ [ T T i z { z { { { { { { { ",
"x ; ; ; ; ; x x x x x .>% x x x x x ; x x x ; - - ; ; = = = - ; x = ; z z z z z z i { ..{ [ T T z z z z z z z { ..z z { { { { { ",
"l ; ; ; - - ; ; ; ; ; ; ; ; ; ; x ; - - ; - - - - = = = - - - ; ; = ; x .:; - - - ; \ - - .o{ { { { { { z z ; ; { ; x - - - - ; "
};
